<svg width="41" height="41" viewBox="0 0 41 41" fill="none" xmlns="http://www.w3.org/2000/svg">
<g id="AA">
<path id="Vector" d="M20.5 40.2847C31.5457 40.2847 40.5 31.3304 40.5 20.2847C40.5 9.23897 31.5457 0.284668 20.5 0.284668C9.4543 0.284668 0.5 9.23897 0.5 20.2847C0.5 31.3304 9.4543 40.2847 20.5 40.2847Z" fill="url(#paint0_linear_877_1868)"/>
<path id="Union" fill-rule="evenodd" clip-rule="evenodd" d="M17.7466 8.78467C17.1441 8.78467 16.5663 9.024 16.1403 9.45C15.7143 9.87601 15.475 10.4538 15.475 11.0563V12.525C15.475 12.8011 15.2511 13.025 14.975 13.025H11.1383C10.5358 13.025 9.95804 13.2643 9.53203 13.6903C9.10603 14.1163 8.8667 14.6941 8.8667 15.2966V19.7021C8.8667 20.3045 9.10603 20.8823 9.53203 21.3083C9.7178 21.4941 9.93242 21.6444 10.1654 21.7548C10.3674 21.8505 10.5188 22.0419 10.5188 22.2655V27.9624C10.5188 28.7109 10.8161 29.4288 11.3454 29.958C11.8747 30.4873 12.5925 30.7847 13.341 30.7847H27.6589C28.4075 30.7847 29.1253 30.4873 29.6546 29.958C30.1839 29.4288 30.4812 28.7109 30.4812 27.9624V22.2655C30.4812 22.0419 30.6325 21.8505 30.8346 21.7548C31.0676 21.6444 31.2822 21.4941 31.468 21.3083C31.894 20.8823 32.1333 20.3045 32.1333 19.7021V15.2966C32.1333 14.6941 31.894 14.1163 31.468 13.6903C31.0419 13.2643 30.4642 13.025 29.8617 13.025H26.025C25.7489 13.025 25.525 12.8011 25.525 12.525V11.0563C25.525 10.4538 25.2857 9.87601 24.8597 9.45C24.4337 9.02399 23.8559 8.78467 23.2534 8.78467H17.7466ZM22.6846 13.025C22.9607 13.025 23.1846 12.8011 23.1846 12.525V11.6251C23.1846 11.349 22.9607 11.1251 22.6846 11.1251H18.3154C18.0392 11.1251 17.8154 11.349 17.8154 11.6251V12.525C17.8154 12.8011 18.0392 13.025 18.3154 13.025H22.6846ZM11.7071 15.3654C11.431 15.3654 11.2071 15.5893 11.2071 15.8654V19.1529C11.2071 19.4182 11.4222 19.6332 11.6875 19.6332L11.689 19.6332L11.6905 19.6332H29.3095L29.311 19.6332L29.3125 19.6332C29.5778 19.6332 29.7929 19.4182 29.7929 19.1529V15.8654C29.7929 15.5893 29.569 15.3654 29.2929 15.3654H11.7071ZM12.8592 27.9624V22.4737C12.8592 22.1975 13.0831 21.9737 13.3592 21.9737H27.6408C27.9169 21.9737 28.1408 22.1975 28.1408 22.4737V27.9624C28.1408 28.0902 28.09 28.2127 27.9997 28.3031C27.9093 28.3935 27.7867 28.4442 27.6589 28.4442H13.341C13.2133 28.4442 13.0907 28.3935 13.0003 28.3031C12.91 28.2128 12.8592 28.0902 12.8592 27.9624Z" fill="url(#paint1_linear_877_1868)"/>
</g>
<defs>
<linearGradient id="paint0_linear_877_1868" x1="0.5" y1="0.284668" x2="42.4148" y2="38.1659" gradientUnits="userSpaceOnUse">
<stop stop-color="#FF9C27"/>
<stop offset="1" stop-color="#FD48CE"/>
</linearGradient>
<linearGradient id="paint1_linear_877_1868" x1="20.5" y1="8.78467" x2="20.5" y2="30.7847" gradientUnits="userSpaceOnUse">
<stop offset="0.166667" stop-color="white"/>
<stop offset="1" stop-color="white" stop-opacity="0.5"/>
</linearGradient>
</defs>
</svg>
