<svg width="48" height="48" viewBox="0 0 48 48" fill="none" xmlns="http://www.w3.org/2000/svg">
<path opacity="0.3" d="M15.8706 13.4766L26.5437 24.1941C27.4295 25.0836 28.825 25.2118 29.8581 24.4985L44.9388 14.0852C45.2237 14.5957 45.34 15.2074 45.2189 15.8371L41.8908 33.1432C41.6557 34.3654 40.5862 35.2489 39.3416 35.2489H14.3428C12.7125 35.2489 11.4857 33.7637 11.7936 32.1627L15.1217 14.8566C15.2261 14.3139 15.495 13.838 15.8706 13.4766Z" fill="#363FF9"/>
<path d="M18.8805 12.7998L27.6276 21.5834C28.1736 22.1317 29.0337 22.2107 29.6705 21.771L42.6628 12.7998H18.8805Z" fill="#363FF9"/>
<path fill-rule="evenodd" clip-rule="evenodd" d="M2.40039 15.1998C2.40039 14.758 2.75856 14.3998 3.20039 14.3998H10.5555C10.9973 14.3998 11.3555 14.758 11.3555 15.1998C11.3555 15.6416 10.9973 15.9998 10.5555 15.9998H3.20039C2.75856 15.9998 2.40039 15.6416 2.40039 15.1998Z" fill="#363FF9"/>
<path fill-rule="evenodd" clip-rule="evenodd" d="M4.06562 18.7263L9.69011 18.7263C10.1319 18.7263 10.4901 19.0844 10.4901 19.5263C10.4901 19.9681 10.1319 20.3263 9.69011 20.3263L4.06562 20.3263C3.6238 20.3263 3.26562 19.9681 3.26562 19.5263C3.26562 19.0844 3.6238 18.7263 4.06562 18.7263Z" fill="#363FF9"/>
<path fill-rule="evenodd" clip-rule="evenodd" d="M4.93105 23.0528L8.82493 23.0528C9.26676 23.0528 9.62493 23.411 9.62493 23.8528C9.62493 24.2947 9.26676 24.6528 8.82493 24.6528L4.93105 24.6528C4.48923 24.6528 4.13105 24.2947 4.13105 23.8528C4.13105 23.411 4.48923 23.0528 4.93105 23.0528Z" fill="#363FF9"/>
</svg>
