<svg width="49" height="48" viewBox="0 0 49 48" fill="none" xmlns="http://www.w3.org/2000/svg">
<path d="M19.2135 12.7998L27.9606 21.5834C28.5066 22.1317 29.3668 22.2107 30.0035 21.771L42.9958 12.7998H19.2135Z" fill="#363FF9"/>
<path d="M16.2038 13.4765L26.8769 24.194C27.7627 25.0835 29.1582 25.2117 30.1913 24.4984L45.272 14.0851C45.5569 14.5956 45.6732 15.2073 45.5521 15.837L42.224 33.1431C41.9889 34.3653 40.9194 35.2488 39.6748 35.2488H14.676C13.0457 35.2488 11.819 33.7636 12.1268 32.1626L15.4549 14.8565C15.5593 14.3138 15.8282 13.8379 16.2038 13.4765Z" fill="#363FF9"/>
<path fill-rule="evenodd" clip-rule="evenodd" d="M2.7334 15.1998C2.7334 14.758 3.09157 14.3998 3.5334 14.3998H10.8885C11.3303 14.3998 11.6885 14.758 11.6885 15.1998C11.6885 15.6416 11.3303 15.9998 10.8885 15.9998H3.5334C3.09157 15.9998 2.7334 15.6416 2.7334 15.1998Z" fill="#363FF9"/>
<path fill-rule="evenodd" clip-rule="evenodd" d="M4.39863 18.7263L10.0231 18.7263C10.465 18.7263 10.8231 19.0844 10.8231 19.5263C10.8231 19.9681 10.465 20.3263 10.0231 20.3263H4.39863C3.9568 20.3263 3.59863 19.9681 3.59863 19.5263C3.59863 19.0844 3.9568 18.7263 4.39863 18.7263Z" fill="#363FF9"/>
<path fill-rule="evenodd" clip-rule="evenodd" d="M5.26406 23.0528L9.15794 23.0528C9.59977 23.0528 9.95794 23.411 9.95794 23.8528C9.95794 24.2947 9.59977 24.6528 9.15794 24.6528L5.26406 24.6528C4.82223 24.6528 4.46406 24.2947 4.46406 23.8528C4.46406 23.411 4.82223 23.0528 5.26406 23.0528Z" fill="#363FF9"/>
</svg>
