<svg width="49" height="48" viewBox="0 0 49 48" fill="none" xmlns="http://www.w3.org/2000/svg">
<path opacity="0.3" d="M34.5853 14.0488L18.1445 34.3835H40.1994C40.7101 34.3835 41.1511 34.0264 41.2574 33.527L45.1236 15.3556C45.2668 14.6826 44.7537 14.0488 44.0657 14.0488H34.5853Z" fill="#363FF9"/>
<path fill-rule="evenodd" clip-rule="evenodd" d="M17.9952 12.7998C16.7505 12.7998 15.681 13.6832 15.4459 14.9055L12.1178 32.2116C11.81 33.8126 13.0367 35.2978 14.6671 35.2978H39.6658C40.9105 35.2978 41.98 34.4143 42.215 33.1921L45.5431 15.886C45.851 14.285 44.6242 12.7998 42.9939 12.7998H17.9952ZM42.9939 14.3998H17.9952C17.9154 14.3998 17.8374 14.4093 17.7626 14.4272L27.4111 23.7184C28.0305 24.3149 28.9858 24.3886 29.6894 23.8942L43.177 14.4165C43.1178 14.4055 43.0566 14.3998 42.9939 14.3998ZM13.6891 32.5138L16.8998 15.8177L26.3013 24.871C27.4725 25.9988 29.2789 26.1382 30.6093 25.2033L43.9208 15.8493L40.6438 32.8899C40.5536 33.3588 40.1433 33.6978 39.6658 33.6978H14.6671C14.0416 33.6978 13.5709 33.128 13.6891 32.5138Z" fill="#020617"/>
<path d="M3.86738 14.5468C3.42555 14.5468 3.06738 14.9049 3.06738 15.3468C3.06738 15.7886 3.42555 16.1468 3.86738 16.1468H11.2225C11.6643 16.1468 12.0225 15.7886 12.0225 15.3468C12.0225 14.9049 11.6643 14.5468 11.2225 14.5468H3.86738Z" fill="#020617"/>
<path d="M10.3571 18.8732H4.73262C4.29079 18.8732 3.93262 19.2314 3.93262 19.6732C3.93262 20.1151 4.29079 20.4732 4.73262 20.4732H10.3571C10.7989 20.4732 11.1571 20.1151 11.1571 19.6732C11.1571 19.2314 10.7989 18.8732 10.3571 18.8732Z" fill="#020617"/>
<path d="M5.46738 23.2488L9.36126 23.2488C9.80309 23.2488 10.1613 23.607 10.1613 24.0488C10.1613 24.4907 9.80309 24.8488 9.36126 24.8488L5.46738 24.8488C5.02556 24.8488 4.66738 24.4907 4.66738 24.0488C4.66738 23.607 5.02555 23.2488 5.46738 23.2488Z" fill="#020617"/>
</svg>
