<svg width="48" height="48" viewBox="0 0 48 48" fill="none" xmlns="http://www.w3.org/2000/svg">
<path fill-rule="evenodd" clip-rule="evenodd" d="M17.4588 12.751C16.2142 12.751 15.1447 13.6344 14.9096 14.8567L11.5815 32.1628C11.2736 33.7638 12.5004 35.2489 14.1307 35.2489H39.1295C40.3741 35.2489 41.4436 34.3655 41.6787 33.1433L45.0068 15.8371C45.3147 14.2362 44.0879 12.751 42.4576 12.751H17.4588ZM42.4576 14.351H17.4588C17.379 14.351 17.3011 14.3604 17.2262 14.3784L26.8748 23.6696C27.4942 24.2661 28.4495 24.3398 29.1531 23.8454L42.6406 14.3676C42.5815 14.3567 42.5203 14.351 42.4576 14.351ZM13.1527 32.4649L16.3635 15.7689L25.765 24.8221C26.9362 25.95 28.7426 26.0894 30.073 25.1545L43.3845 15.8004L40.1075 32.8411C40.0173 33.31 39.607 33.6489 39.1295 33.6489H14.1307C13.5053 33.6489 13.0346 33.0792 13.1527 32.4649Z" fill="#363FF9"/>
<path d="M3.20039 14.547C2.75856 14.547 2.40039 14.9051 2.40039 15.347C2.40039 15.7888 2.75856 16.147 3.20039 16.147H10.5555C10.9973 16.147 11.3555 15.7888 11.3555 15.347C11.3555 14.9051 10.9973 14.547 10.5555 14.547H3.20039Z" fill="#363FF9"/>
<path d="M9.69011 18.8734L4.06562 18.8734C3.6238 18.8734 3.26562 19.2316 3.26562 19.6734C3.26562 20.1153 3.6238 20.4734 4.06562 20.4734H9.69011C10.1319 20.4734 10.4901 20.1153 10.4901 19.6734C10.4901 19.2316 10.1319 18.8734 9.69011 18.8734Z" fill="#363FF9"/>
<path d="M4.93105 23.2L8.82493 23.2C9.26676 23.2 9.62493 23.5582 9.62493 24C9.62493 24.4418 9.26676 24.8 8.82493 24.8L4.93105 24.8C4.48923 24.8 4.13105 24.4418 4.13105 24C4.13105 23.5582 4.48923 23.2 4.93105 23.2Z" fill="#363FF9"/>
</svg>
