<svg width="290" height="50" viewBox="0 0 290 50" fill="none" xmlns="http://www.w3.org/2000/svg">
<path fill-rule="evenodd" clip-rule="evenodd" d="M17.8334 2.90869C16.6235 2.90869 15.4631 3.38933 14.6076 4.24488C13.752 5.10043 13.2714 6.26081 13.2714 7.47074V10.4204C13.2714 10.975 12.8218 11.4246 12.2672 11.4246H4.56205C3.35212 11.4246 2.19174 11.9052 1.33619 12.7608C0.480643 13.6163 0 14.7767 0 15.9866V24.8343C0 26.0442 0.480643 27.2046 1.33619 28.0601C1.70926 28.4332 2.1403 28.735 2.60812 28.9567C3.01395 29.149 3.31785 29.5333 3.31785 29.9824V41.4235C3.31785 42.9268 3.91501 44.3684 4.97797 45.4314C6.04092 46.4943 7.4826 47.0915 8.98585 47.0915H37.7406C39.2438 47.0915 40.6855 46.4943 41.7485 45.4314C42.8114 44.3684 43.4086 42.9268 43.4086 41.4235V29.9824C43.4086 29.5333 43.7125 29.149 44.1183 28.9567C44.5861 28.735 45.0172 28.4332 45.3902 28.0601C46.2458 27.2046 46.7264 26.0442 46.7264 24.8343V15.9866C46.7264 14.7767 46.2458 13.6163 45.3902 12.7608C44.5347 11.9052 43.3743 11.4246 42.1644 11.4246H34.4592C33.9046 11.4246 33.455 10.975 33.455 10.4204V7.47074C33.455 6.26081 32.9744 5.10043 32.1188 4.24488C31.2633 3.38933 30.1029 2.90869 28.893 2.90869H17.8334ZM27.7506 11.4246C28.3051 11.4246 28.7547 10.975 28.7547 10.4204V8.61313C28.7547 8.05856 28.3051 7.60898 27.7506 7.60898H18.9758C18.4213 7.60898 17.9717 8.05856 17.9717 8.61314V10.4204C17.9717 10.975 18.4213 11.4246 18.9758 11.4246H27.7506ZM5.70444 16.1249C5.14987 16.1249 4.70029 16.5745 4.70029 17.129V23.7357C4.70029 24.2661 5.13023 24.696 5.66058 24.696V24.696L5.668 24.696L5.67541 24.696H41.051L41.0584 24.696L41.0658 24.696V24.696C41.5962 24.696 42.0261 24.2661 42.0261 23.7357V17.129C42.0261 16.5745 41.5766 16.1249 41.022 16.1249H5.70444ZM8.01814 41.4235V30.4005C8.01814 29.8459 8.46772 29.3963 9.02229 29.3963H37.7041C38.2587 29.3963 38.7083 29.8459 38.7083 30.4005V41.4235C38.7083 41.6802 38.6063 41.9263 38.4248 42.1078C38.2434 42.2893 37.9972 42.3912 37.7406 42.3912H8.98585C8.7292 42.3912 8.48306 42.2893 8.30158 42.1078C8.12009 41.9263 8.01814 41.6802 8.01814 41.4235Z" fill="url(#paint0_linear_760_456)"/>
<path d="M74.5807 40H67.6486L78.992 9.96107H85.63L97.0574 40H89.9993L87.8566 33.362H76.7233L74.5807 40ZM82.269 15.9268L78.3198 28.3205H86.3022L82.353 15.9268H82.269ZM107.89 40.6722C105.706 40.6722 103.787 40.1961 102.135 39.2438C100.51 38.2635 99.2498 36.9191 98.3535 35.2106C97.4573 33.4741 97.0091 31.4855 97.0091 29.2448C97.0091 27.0321 97.4573 25.0576 98.3535 23.321C99.2498 21.5845 100.51 20.2401 102.135 19.2878C103.759 18.3076 105.65 17.8174 107.806 17.8174C110.691 17.8174 113.044 18.6156 114.864 20.2121C116.685 21.8086 117.735 23.8952 118.015 26.472H112.176C112.036 25.2956 111.643 24.3013 110.999 23.4891C110.355 22.6769 109.319 22.2707 107.89 22.2707C106.238 22.2707 104.992 22.9009 104.151 24.1613C103.339 25.4217 102.933 27.1162 102.933 29.2448C102.933 31.3734 103.339 33.0679 104.151 34.3283C104.963 35.5887 106.21 36.2189 107.89 36.2189C110.467 36.2189 111.896 34.7905 112.176 31.9336H118.015C117.903 33.6141 117.413 35.1266 116.545 36.471C115.705 37.7873 114.528 38.8237 113.016 39.5799C111.531 40.3081 109.823 40.6722 107.89 40.6722ZM130.661 40.6722C128.476 40.6722 126.558 40.1961 124.905 39.2438C123.281 38.2635 122.02 36.9191 121.124 35.2106C120.228 33.4741 119.78 31.4855 119.78 29.2448C119.78 27.0321 120.228 25.0576 121.124 23.321C122.02 21.5845 123.281 20.2401 124.905 19.2878C126.53 18.3076 128.42 17.8174 130.577 17.8174C133.462 17.8174 135.814 18.6156 137.635 20.2121C139.455 21.8086 140.506 23.8952 140.786 26.472H134.946C134.806 25.2956 134.414 24.3013 133.77 23.4891C133.126 22.6769 132.089 22.2707 130.661 22.2707C129.008 22.2707 127.762 22.9009 126.922 24.1613C126.109 25.4217 125.703 27.1162 125.703 29.2448C125.703 31.3734 126.109 33.0679 126.922 34.3283C127.734 35.5887 128.98 36.2189 130.661 36.2189C133.238 36.2189 134.666 34.7905 134.946 31.9336H140.786C140.674 33.6141 140.184 35.1266 139.315 36.471C138.475 37.7873 137.299 38.8237 135.786 39.5799C134.302 40.3081 132.593 40.6722 130.661 40.6722ZM153.725 40.6722C151.457 40.6722 149.468 40.1961 147.76 39.2438C146.079 38.2915 144.791 36.9611 143.894 35.2526C142.998 33.5161 142.55 31.5275 142.55 29.2868C142.55 27.0461 142.998 25.0576 143.894 23.321C144.819 21.5845 146.121 20.2401 147.802 19.2878C149.51 18.3076 151.513 17.8174 153.809 17.8174C156.078 17.8174 158.053 18.2935 159.733 19.2458C161.442 20.1981 162.744 21.5425 163.64 23.279C164.537 24.9875 164.985 26.9621 164.985 29.2028C164.985 31.4435 164.523 33.432 163.598 35.1686C162.702 36.9051 161.4 38.2635 159.691 39.2438C158.011 40.1961 156.022 40.6722 153.725 40.6722ZM153.767 36.2609C155.504 36.2609 156.82 35.6447 157.717 34.4123C158.641 33.152 159.103 31.4295 159.103 29.2448C159.103 27.0602 158.641 25.3516 157.717 24.1193C156.82 22.8869 155.504 22.2707 153.767 22.2707C152.031 22.2707 150.7 22.8869 149.776 24.1193C148.88 25.3516 148.432 27.0602 148.432 29.2448C148.432 31.4295 148.88 33.152 149.776 34.4123C150.7 35.6447 152.031 36.2609 153.767 36.2609ZM182.043 18.5316H187.799V40H182.043V37.0591H181.959C181.315 38.1234 180.405 38.9917 179.228 39.6639C178.08 40.3081 176.637 40.6302 174.901 40.6302C172.8 40.6302 171.106 39.986 169.817 38.6976C168.529 37.3812 167.885 35.5327 167.885 33.152V18.5316H173.641V31.3874C173.641 32.9559 173.935 34.1042 174.523 34.8325C175.139 35.5607 176.091 35.9248 177.38 35.9248C178.836 35.9248 179.97 35.5187 180.783 34.7064C181.623 33.8942 182.043 32.7318 182.043 31.2194V18.5316ZM204.746 17.8594C206.847 17.8594 208.541 18.5176 209.829 19.834C211.146 21.1224 211.804 22.9569 211.804 25.3376V40H206.006V27.1022C206.006 25.5617 205.698 24.4274 205.082 23.6992C204.494 22.9709 203.57 22.6068 202.309 22.6068C200.825 22.6068 199.662 23.013 198.822 23.8252C198.01 24.6094 197.604 25.7718 197.604 27.3122V40H191.848V18.5316H197.604V21.4725H197.688C198.332 20.4082 199.228 19.5399 200.377 18.8677C201.553 18.1955 203.009 17.8594 204.746 17.8594ZM225.101 35.9248C225.605 35.9248 226.207 35.8688 226.907 35.7567V39.958C225.675 40.2381 224.513 40.3781 223.42 40.3781C221.236 40.3781 219.625 39.846 218.589 38.7816C217.581 37.6893 217.077 35.8828 217.077 33.362V22.9429H214.052V18.5316H217.077V12.1877H222.832V18.5316H226.697V22.9429H222.832V33.32C222.832 34.3843 223 35.0845 223.336 35.4206C223.701 35.7567 224.289 35.9248 225.101 35.9248ZM265.349 40H257.786L249.132 27.2702L245.393 31.4715V40H238.923V9.96107H245.393V23.6992L257.45 9.96107H264.466L252.997 22.9009L265.349 40ZM272.356 40H266.601V18.5316H272.356V40ZM272.482 15.5067H266.517V10.0871H272.482V15.5067ZM286.027 35.9248C286.531 35.9248 287.134 35.8688 287.834 35.7567V39.958C286.601 40.2381 285.439 40.3781 284.347 40.3781C282.162 40.3781 280.552 39.846 279.515 38.7816C278.507 37.6893 278.003 35.8828 278.003 33.362V22.9429H274.978V18.5316H278.003V12.1877H283.759V18.5316H287.624V22.9429H283.759V33.32C283.759 34.3843 283.927 35.0845 284.263 35.4206C284.627 35.7567 285.215 35.9248 286.027 35.9248Z" fill="white"/>
<defs>
<linearGradient id="paint0_linear_760_456" x1="0" y1="2.90869" x2="46.4875" y2="47.3414" gradientUnits="userSpaceOnUse">
<stop stop-color="#FF9C27"/>
<stop offset="1" stop-color="#FD48CE"/>
</linearGradient>
</defs>
</svg>
