<svg width="87" height="14.76" viewBox="0 0 224 38" fill="none" xmlns="http://www.w3.org/2000/svg">
<g clip-path="url(#clip0_2600_197)">
<path fill-rule="evenodd" clip-rule="evenodd" d="M15.2663 0C14.2305 0 13.2372 0.411453 12.5048 1.14384C11.7724 1.87623 11.3609 2.86957 11.3609 3.90532V6.43044C11.3609 6.90518 10.9761 7.29004 10.5013 7.29004H3.90532C2.86957 7.29004 1.87623 7.70149 1.14384 8.43388C0.411453 9.16627 0 10.1596 0 11.1954V18.7693C0 19.8051 0.411453 20.7984 1.14384 21.5308C1.46321 21.8502 1.83219 22.1085 2.23268 22.2983C2.58008 22.463 2.84024 22.7919 2.84024 23.1764V32.9705C2.84024 34.2573 3.35144 35.4915 4.26138 36.4014C5.17131 37.3113 6.40546 37.8225 7.69231 37.8225H32.3077C33.5945 37.8225 34.8287 37.3113 35.7386 36.4014C36.6486 35.4915 37.1598 34.2573 37.1598 32.9705V23.1764C37.1598 22.7919 37.4199 22.463 37.7673 22.2983C38.1678 22.1085 38.5368 21.8502 38.8562 21.5308C39.5885 20.7984 40 19.8051 40 18.7693V11.1954C40 10.1596 39.5885 9.16628 38.8562 8.43388C38.1238 7.70149 37.1304 7.29004 36.0947 7.29004H29.4987C29.0239 7.29004 28.6391 6.90518 28.6391 6.43044V3.90532C28.6391 2.86957 28.2276 1.87623 27.4952 1.14384C26.7628 0.411452 25.7695 0 24.7337 0H15.2663ZM23.7558 7.29004C24.2305 7.29004 24.6154 6.90518 24.6154 6.43044V4.88327C24.6154 4.40852 24.2305 4.02367 23.7558 4.02367H16.2442C15.7695 4.02367 15.3846 4.40852 15.3846 4.88327V6.43044C15.3846 6.90518 15.7695 7.29004 16.2442 7.29004H23.7558ZM4.88327 11.3137C4.40852 11.3137 4.02367 11.6986 4.02367 12.1733V17.8341C4.02367 18.2853 4.38939 18.651 4.84053 18.651H4.85207H4.86362H35.1364H35.1479H35.1595C35.6106 18.651 35.9763 18.2853 35.9763 17.8341V12.1733C35.9763 11.6986 35.5915 11.3137 35.1167 11.3137H4.88327ZM6.8639 32.9705V23.5343C6.8639 23.0595 7.24876 22.6747 7.72351 22.6747H32.2765C32.7512 22.6747 33.1361 23.0595 33.1361 23.5343V32.9705C33.1361 33.1902 33.0488 33.4009 32.8935 33.5562C32.7381 33.7116 32.5274 33.7989 32.3077 33.7989H7.69231C7.4726 33.7989 7.2619 33.7116 7.10654 33.5562C6.95118 33.4009 6.8639 33.1902 6.8639 32.9705Z" fill="url(#paint0_linear_2600_197)"/>
<path d="M61.28 31.3993H56L64.64 8.51929H69.696L78.4 31.3993H73.024L71.392 26.3433H62.912L61.28 31.3993ZM67.136 13.0633L64.128 22.5033H70.208L67.2 13.0633H67.136Z" fill="white"/>
<path d="M86.6513 31.9113C84.9873 31.9113 83.5259 31.5486 82.2673 30.8233C81.0299 30.0766 80.0699 29.0526 79.3873 27.7513C78.7046 26.4286 78.3633 24.9139 78.3633 23.2073C78.3633 21.5219 78.7046 20.0179 79.3873 18.6953C80.0699 17.3726 81.0299 16.3486 82.2673 15.6233C83.5046 14.8766 84.9446 14.5033 86.5872 14.5033C88.7846 14.5033 90.5766 15.1113 91.9632 16.3273C93.3499 17.5433 94.1499 19.1326 94.3633 21.0953H89.9152C89.8086 20.1993 89.5099 19.4419 89.0192 18.8233C88.5286 18.2046 87.7393 17.8953 86.6513 17.8953C85.3926 17.8953 84.4432 18.3753 83.8032 19.3353C83.1846 20.2953 82.8752 21.5859 82.8752 23.2073C82.8752 24.8286 83.1846 26.1193 83.8032 27.0793C84.4219 28.0393 85.3713 28.5193 86.6513 28.5193C88.6139 28.5193 89.7019 27.4313 89.9152 25.2553H94.3633C94.2779 26.5353 93.9046 27.6873 93.2433 28.7113C92.6033 29.7139 91.7073 30.5033 90.5553 31.0793C89.4246 31.6339 88.1233 31.9113 86.6513 31.9113Z" fill="white"/>
<path d="M103.995 31.9113C102.331 31.9113 100.87 31.5486 99.611 30.8233C98.3737 30.0766 97.4137 29.0526 96.731 27.7513C96.0483 26.4286 95.707 24.9139 95.707 23.2073C95.707 21.5219 96.0483 20.0179 96.731 18.6953C97.4137 17.3726 98.3737 16.3486 99.611 15.6233C100.848 14.8766 102.288 14.5033 103.931 14.5033C106.128 14.5033 107.92 15.1113 109.307 16.3273C110.694 17.5433 111.494 19.1326 111.707 21.0953H107.259C107.152 20.1993 106.854 19.4419 106.363 18.8233C105.872 18.2046 105.083 17.8953 103.995 17.8953C102.736 17.8953 101.787 18.3753 101.147 19.3353C100.528 20.2953 100.219 21.5859 100.219 23.2073C100.219 24.8286 100.528 26.1193 101.147 27.0793C101.766 28.0393 102.715 28.5193 103.995 28.5193C105.958 28.5193 107.046 27.4313 107.259 25.2553H111.707C111.622 26.5353 111.248 27.6873 110.587 28.7113C109.947 29.7139 109.051 30.5033 107.899 31.0793C106.768 31.6339 105.467 31.9113 103.995 31.9113Z" fill="white"/>
<path d="M121.563 31.9113C119.835 31.9113 118.32 31.5486 117.019 30.8233C115.739 30.0979 114.757 29.0846 114.075 27.7833C113.392 26.4606 113.051 24.9459 113.051 23.2393C113.051 21.5326 113.392 20.0179 114.075 18.6953C114.779 17.3726 115.771 16.3486 117.051 15.6233C118.352 14.8766 119.877 14.5033 121.627 14.5033C123.355 14.5033 124.859 14.8659 126.139 15.5913C127.44 16.3166 128.432 17.3406 129.115 18.6633C129.797 19.9646 130.139 21.4686 130.139 23.1753C130.139 24.8819 129.787 26.3966 129.083 27.7193C128.4 29.0419 127.408 30.0766 126.107 30.8233C124.827 31.5486 123.312 31.9113 121.563 31.9113ZM121.595 28.5513C122.917 28.5513 123.92 28.0819 124.603 27.1433C125.307 26.1833 125.659 24.8713 125.659 23.2073C125.659 21.5433 125.307 20.2419 124.603 19.3033C123.92 18.3646 122.917 17.8953 121.595 17.8953C120.272 17.8953 119.259 18.3646 118.555 19.3033C117.872 20.2419 117.531 21.5433 117.531 23.2073C117.531 24.8713 117.872 26.1833 118.555 27.1433C119.259 28.0819 120.272 28.5513 121.595 28.5513Z" fill="white"/>
<path d="M143.132 15.0472H147.516V31.3992H143.132V29.1592H143.068C142.577 29.9698 141.884 30.6312 140.988 31.1432C140.113 31.6338 139.014 31.8792 137.692 31.8792C136.092 31.8792 134.801 31.3885 133.82 30.4072C132.838 29.4045 132.348 27.9965 132.348 26.1832V15.0472H136.732V24.8392C136.732 26.0338 136.956 26.9085 137.404 27.4632C137.873 28.0178 138.598 28.2952 139.58 28.2952C140.689 28.2952 141.553 27.9858 142.172 27.3672C142.812 26.7485 143.132 25.8632 143.132 24.7112V15.0472Z" fill="white"/>
<path d="M160.424 14.5353C162.024 14.5353 163.315 15.0366 164.296 16.0393C165.299 17.0206 165.8 18.4179 165.8 20.2313V31.3993H161.384V21.5753C161.384 20.4019 161.149 19.5379 160.68 18.9833C160.232 18.4286 159.528 18.1513 158.568 18.1513C157.437 18.1513 156.552 18.4606 155.912 19.0793C155.293 19.6766 154.984 20.5619 154.984 21.7353V31.3993H150.6V15.0473H154.984V17.2873H155.048C155.539 16.4766 156.221 15.8153 157.096 15.3033C157.992 14.7913 159.101 14.5353 160.424 14.5353Z" fill="white"/>
<path d="M175.928 28.2953C176.312 28.2953 176.771 28.2526 177.304 28.1673V31.3673C176.365 31.5806 175.48 31.6873 174.648 31.6873C172.984 31.6873 171.757 31.2819 170.968 30.4713C170.2 29.6393 169.816 28.2633 169.816 26.3433V18.4073H167.512V15.0473H169.816V10.2153H174.2V15.0473H177.144V18.4073H174.2V26.3113C174.2 27.1219 174.328 27.6553 174.584 27.9113C174.861 28.1673 175.309 28.2953 175.928 28.2953Z" fill="white"/>
<path d="M206.584 31.3993H200.824L194.232 21.7033L191.384 24.9033V31.3993H186.456V8.51929H191.384V18.9833L200.568 8.51929H205.912L197.176 18.3753L206.584 31.3993Z" fill="white"/>
<path d="M211.921 31.3993H207.538V15.0473H211.921V31.3993ZM212.018 12.7433H207.473V8.61523H212.018V12.7433Z" fill="white"/>
<path d="M222.334 28.2953C222.718 28.2953 223.177 28.2526 223.71 28.1673V31.3673C222.772 31.5806 221.886 31.6873 221.054 31.6873C219.39 31.6873 218.164 31.2819 217.374 30.4713C216.606 29.6393 216.222 28.2633 216.222 26.3433V18.4073H213.918V15.0473H216.222V10.2153H220.606V15.0473H223.55V18.4073H220.606V26.3113C220.606 27.1219 220.734 27.6553 220.99 27.9113C221.268 28.1673 221.716 28.2953 222.334 28.2953Z" fill="white"/>
</g>
<defs>
<linearGradient id="paint0_linear_2600_197" x1="0" y1="0" x2="39.7955" y2="38.0365" gradientUnits="userSpaceOnUse">
<stop stop-color="#FF9C27"/>
<stop offset="1" stop-color="#FD48CE"/>
</linearGradient>
<clipPath id="clip0_2600_197">
<rect width="224" height="38" fill="white"/>
</clipPath>
</defs>
</svg>
