<svg xmlns="http://www.w3.org/2000/svg" width="160" height="35" viewBox="0 0 160 35" fill="none">
  <path d="M50.1082 18.9902V18.591C50.1082 17.5877 49.7651 16.82 49.0791 16.2876C48.4138 15.7348 47.5406 15.4584 46.4596 15.4584C45.628 15.4584 44.9731 15.6018 44.495 15.8884C44.0376 16.1546 43.601 16.564 43.1852 17.1168C43.0605 17.2806 42.9254 17.3932 42.7798 17.4547C42.6343 17.5161 42.4368 17.5468 42.1873 17.5468H41.2518C41.0231 17.5468 40.8152 17.4649 40.6281 17.3011C40.4618 17.1373 40.389 16.9428 40.4098 16.7176C40.4722 16.1034 40.7736 15.4994 41.3142 14.9056C41.8755 14.2914 42.6135 13.7898 43.5283 13.4008C44.443 13.0118 45.4201 12.8173 46.4596 12.8173C48.393 12.8173 49.9522 13.3496 51.1372 14.4143C52.343 15.4789 52.9459 16.9735 52.9459 18.8981V28.2649C52.9459 28.4902 52.8628 28.6847 52.6965 28.8484C52.5301 29.0122 52.3326 29.0941 52.104 29.0941H50.9501C50.7214 29.0941 50.5239 29.0122 50.3576 28.8484C50.1913 28.6847 50.1082 28.4902 50.1082 28.2649V27.0058C49.7755 27.7428 49.0687 28.3264 47.9876 28.7563C46.9066 29.1863 45.8255 29.4012 44.7444 29.4012C43.6842 29.4012 42.7382 29.217 41.9067 28.8484C41.0751 28.4594 40.4306 27.9374 39.9732 27.2822C39.5366 26.627 39.3184 25.8899 39.3184 25.071C39.3184 23.5354 39.9005 22.3377 41.0647 21.4778C42.2289 20.5974 43.7777 20.0037 45.7112 19.6966L50.1082 18.9902ZM50.1082 21.4471L46.4284 22.0306C45.0771 22.2353 44.0272 22.5732 43.2788 23.0441C42.5303 23.4945 42.1561 24.0678 42.1561 24.7639C42.1561 25.2757 42.3952 25.7364 42.8734 26.1459C43.3515 26.5554 44.0792 26.7601 45.0563 26.7601C46.5531 26.7601 47.7693 26.3404 48.7049 25.5009C49.6404 24.6615 50.1082 23.5661 50.1082 22.2149V21.4471Z" fill="white"/>
  <path d="M60.3335 28.2649C60.3335 28.4902 60.2503 28.6847 60.084 28.8484C59.9177 29.0122 59.7202 29.0941 59.4915 29.0941H58.3377C58.109 29.0941 57.9115 29.0122 57.7452 28.8484C57.5788 28.6847 57.4957 28.4902 57.4957 28.2649V8.1185C57.4957 7.89329 57.5788 7.69879 57.7452 7.535C57.9115 7.3712 58.109 7.28931 58.3377 7.28931H59.4915C59.7202 7.28931 59.9177 7.3712 60.084 7.535C60.2503 7.69879 60.3335 7.89329 60.3335 8.1185V28.2649Z" fill="white"/>
  <path d="M71.5664 26.7601C73.6454 26.7601 75.0487 25.9616 75.7763 24.3646C75.9218 24.0575 76.0674 23.8425 76.2129 23.7197C76.3584 23.5969 76.5559 23.5354 76.8054 23.5354H77.7409C77.9696 23.5354 78.1671 23.6173 78.3334 23.7811C78.4997 23.9244 78.5829 24.0985 78.5829 24.3032C78.5829 24.9993 78.3022 25.7466 77.7409 26.5451C77.1796 27.3436 76.3688 28.0192 75.3085 28.572C74.2483 29.1248 73.0009 29.4012 71.5664 29.4012C70.0904 29.4012 68.8118 29.0941 67.7307 28.4799C66.6497 27.8657 65.8181 27.0263 65.236 25.9616C64.6539 24.8765 64.3316 23.6685 64.2693 22.3377C64.2485 22.092 64.2381 21.6211 64.2381 20.925C64.2381 20.4336 64.2485 20.0856 64.2693 19.8808C64.4564 17.7925 65.1736 16.0931 66.421 14.7828C67.6684 13.4725 69.3835 12.8173 71.5664 12.8173C73.0009 12.8173 74.2379 13.0937 75.2774 13.6465C76.3376 14.1788 77.138 14.8442 77.6786 15.6427C78.2399 16.4207 78.5413 17.1578 78.5829 17.8539C78.6037 18.0791 78.5205 18.2736 78.3334 18.4374C78.1671 18.6012 77.9696 18.6831 77.7409 18.6831H76.8054C76.5559 18.6831 76.3584 18.6217 76.2129 18.4988C76.0674 18.376 75.9218 18.161 75.7763 17.8539C75.0487 16.2569 73.6454 15.4584 71.5664 15.4584C70.423 15.4584 69.4251 15.8372 68.5727 16.5947C67.7203 17.3523 67.2318 18.4988 67.1071 20.0344C67.0863 20.2596 67.0759 20.6281 67.0759 21.14C67.0759 21.6109 67.0863 21.9589 67.1071 22.1842C67.2526 23.7197 67.7411 24.8662 68.5727 25.6238C69.4251 26.3813 70.423 26.7601 71.5664 26.7601Z" fill="white"/>
  <path d="M96.7225 28.2649C96.7225 28.4902 96.6393 28.6847 96.473 28.8484C96.3067 29.0122 96.1092 29.0941 95.8805 29.0941H94.7267C94.498 29.0941 94.3005 29.0122 94.1342 28.8484C93.9678 28.6847 93.8847 28.4902 93.8847 28.2649V20.1572C93.8847 18.6217 93.5001 17.4547 92.7309 16.6562C91.9616 15.8577 90.891 15.4584 89.5189 15.4584C88.1676 15.4584 87.0969 15.8577 86.3069 16.6562C85.5377 17.4547 85.1531 18.6217 85.1531 20.1572V28.2649C85.1531 28.4902 85.0699 28.6847 84.9036 28.8484C84.7373 29.0122 84.5398 29.0941 84.3111 29.0941H83.1573C82.9286 29.0941 82.7311 29.0122 82.5648 28.8484C82.3984 28.6847 82.3153 28.4902 82.3153 28.2649V8.1185C82.3153 7.89329 82.3984 7.69879 82.5648 7.535C82.7311 7.3712 82.9286 7.28931 83.1573 7.28931H84.3111C84.5398 7.28931 84.7373 7.3712 84.9036 7.535C85.0699 7.69879 85.1531 7.89329 85.1531 8.1185V14.9056C85.6104 14.3119 86.2341 13.8205 87.0241 13.4315C87.8349 13.022 88.8224 12.8173 89.9866 12.8173C91.2964 12.8173 92.4606 13.0937 93.4793 13.6465C94.498 14.1993 95.288 14.9978 95.8493 16.0419C96.4314 17.0656 96.7225 18.2839 96.7225 19.6966V28.2649Z" fill="white"/>
  <path d="M107.65 12.8173C109.875 12.8173 111.631 13.5134 112.92 14.9056C114.209 16.2979 114.854 18.1917 114.854 20.5872V21.4164C114.854 21.6416 114.771 21.8361 114.604 21.9999C114.438 22.1637 114.24 22.2456 114.012 22.2456H103.284V22.4298C103.326 23.7811 103.742 24.8458 104.532 25.6238C105.343 26.3813 106.382 26.7601 107.65 26.7601C108.69 26.7601 109.49 26.627 110.051 26.3609C110.633 26.0947 111.153 25.7159 111.611 25.2245C111.777 25.0608 111.922 24.9481 112.047 24.8867C112.193 24.8253 112.38 24.7946 112.608 24.7946H113.544C113.793 24.7946 114.001 24.8765 114.168 25.0403C114.334 25.2041 114.407 25.3986 114.386 25.6238C114.303 26.1766 113.991 26.7499 113.45 27.3436C112.931 27.9169 112.172 28.4083 111.174 28.8177C110.197 29.2067 109.022 29.4012 107.65 29.4012C106.32 29.4012 105.135 29.1044 104.095 28.5106C103.056 27.8964 102.224 27.057 101.6 25.9923C100.997 24.9277 100.634 23.7299 100.509 22.3991C100.467 21.7849 100.447 21.314 100.447 20.9864C100.447 20.6588 100.467 20.1879 100.509 19.5737C100.634 18.3043 100.997 17.1578 101.6 16.1341C102.224 15.1104 103.045 14.3017 104.064 13.7079C105.103 13.1142 106.299 12.8173 107.65 12.8173ZM112.047 19.6659V19.5737C112.047 18.3248 111.642 17.3318 110.831 16.5947C110.041 15.8372 108.981 15.4584 107.65 15.4584C106.444 15.4584 105.415 15.8372 104.563 16.5947C103.731 17.3523 103.305 18.3453 103.284 19.5737V19.6659H112.047Z" fill="white"/>
  <path d="M121.454 14.9056C121.953 14.2709 122.514 13.7693 123.138 13.4008C123.761 13.0118 124.593 12.8173 125.632 12.8173C128.065 12.8173 129.769 13.7079 130.747 15.4891C131.349 14.6292 132.036 13.9741 132.805 13.5236C133.574 13.0527 134.582 12.8173 135.83 12.8173C137.867 12.8173 139.374 13.4213 140.351 14.6292C141.349 15.8372 141.848 17.5468 141.848 19.758V28.2649C141.848 28.4902 141.765 28.6847 141.599 28.8484C141.432 29.0122 141.235 29.0941 141.006 29.0941H139.852C139.624 29.0941 139.426 29.0122 139.26 28.8484C139.094 28.6847 139.01 28.4902 139.01 28.2649V20.0651C139.01 16.994 137.784 15.4584 135.331 15.4584C134.208 15.4584 133.314 15.827 132.649 16.564C131.984 17.3011 131.651 18.3965 131.651 19.8501V28.2649C131.651 28.4902 131.568 28.6847 131.401 28.8484C131.235 29.0122 131.038 29.0941 130.809 29.0941H129.655C129.426 29.0941 129.229 29.0122 129.063 28.8484C128.896 28.6847 128.813 28.4902 128.813 28.2649V20.0651C128.813 16.994 127.587 15.4584 125.133 15.4584C124.011 15.4584 123.117 15.827 122.452 16.564C121.786 17.3011 121.454 18.3965 121.454 19.8501V28.2649C121.454 28.4902 121.37 28.6847 121.204 28.8484C121.038 29.0122 120.84 29.0941 120.612 29.0941H119.458C119.229 29.0941 119.032 29.0122 118.865 28.8484C118.699 28.6847 118.616 28.4902 118.616 28.2649V13.9536C118.616 13.7284 118.699 13.5339 118.865 13.3701C119.032 13.2063 119.229 13.1244 119.458 13.1244H120.612C120.84 13.1244 121.038 13.2063 121.204 13.3701C121.37 13.5339 121.454 13.7284 121.454 13.9536V14.9056Z" fill="white"/>
  <path d="M150.582 34.1922C150.395 34.6835 150.093 34.9292 149.678 34.9292H148.399C148.191 34.9292 148.015 34.8576 147.869 34.7142C147.723 34.5709 147.651 34.3969 147.651 34.1922C147.651 34.1103 147.661 34.0386 147.682 33.9772L150.676 27.5586L144.501 14.0764C144.48 14.015 144.47 13.9434 144.47 13.8615C144.47 13.6567 144.543 13.4827 144.688 13.3394C144.834 13.1961 145.01 13.1244 145.218 13.1244H146.497C146.913 13.1244 147.214 13.3701 147.401 13.8615L152.204 24.3032L157.068 13.8615C157.255 13.3701 157.557 13.1244 157.973 13.1244H159.251C159.459 13.1244 159.636 13.1961 159.781 13.3394C159.927 13.4827 160 13.6567 160 13.8615C160 13.9434 159.989 14.015 159.969 14.0764L150.582 34.1922Z" fill="white"/>
  <path d="M27.5283 18.9347L17.0572 1.15718C17.0065 1.0694 16.9331 0.996273 16.8443 0.945189C16.7556 0.894106 16.6547 0.866867 16.5518 0.866223C16.4489 0.865578 16.3476 0.89155 16.2582 0.941518C16.1688 0.991486 16.0945 1.06368 16.0427 1.15082L12.9067 6.47771C12.804 6.65208 12.7499 6.84988 12.7499 7.05123C12.7499 7.25257 12.804 7.45037 12.9067 7.62474L19.7345 19.2222C19.8373 19.3967 19.9852 19.5417 20.1633 19.6423C20.3414 19.743 20.5434 19.7959 20.749 19.7957H27.0211C27.1237 19.7954 27.2245 19.7687 27.3134 19.7183C27.4022 19.6678 27.476 19.5954 27.5274 19.5082C27.5787 19.4211 27.6058 19.3222 27.606 19.2216C27.6061 19.1209 27.5794 19.022 27.5283 18.9347Z" fill="white"/>
  <path d="M0.0807432 28.2258L10.5519 10.4483C10.6032 10.3613 10.6771 10.289 10.766 10.2387C10.8549 10.1884 10.9557 10.162 11.0583 10.162C11.1609 10.162 11.2618 10.1884 11.3507 10.2387C11.4396 10.289 11.5134 10.3613 11.5648 10.4483L14.7024 15.7705C14.8051 15.9451 14.8591 16.1432 14.8591 16.3448C14.8591 16.5464 14.8051 16.7444 14.7024 16.9191L7.87452 28.5166C7.77211 28.6911 7.62454 28.836 7.44668 28.9367C7.26883 29.0374 7.06699 29.0903 6.8616 29.0901H0.588012C0.484665 29.0906 0.38303 29.0642 0.293436 29.0137C0.203841 28.9633 0.129495 28.8904 0.0779537 28.8026C0.0264127 28.7148 -0.00048522 28.6151 6.62616e-06 28.5138C0.000498472 28.4125 0.0283519 28.3131 0.0807432 28.2258Z" fill="white"/>
  <path d="M11.5633 29.0863H32.5055C32.6082 29.0862 32.7092 29.0596 32.7981 29.0091C32.887 28.9587 32.9608 28.8861 33.012 28.7989C33.0633 28.7116 33.0902 28.6126 33.09 28.5119C33.0899 28.4112 33.0627 28.3123 33.0112 28.2252L29.8784 22.8999C29.7756 22.7254 29.6277 22.5804 29.4496 22.4798C29.2715 22.3791 29.0695 22.3262 28.8639 22.3264H15.2082C15.0026 22.3262 14.8006 22.3791 14.6224 22.4798C14.4443 22.5804 14.2964 22.7254 14.1936 22.8999L11.0577 28.2252C11.0061 28.3123 10.9789 28.4112 10.9788 28.5119C10.9786 28.6126 11.0055 28.7116 11.0568 28.7989C11.108 28.8861 11.1819 28.9587 11.2708 29.0091C11.3597 29.0596 11.4605 29.0862 11.5633 29.0863Z" fill="white"/>
</svg>