<svg width="1600" height="950" viewBox="0 0 1600 950" fill="none" xmlns="http://www.w3.org/2000/svg">
<g clip-path="url(#clip0_874_59316)">
<g opacity="0.75">
<mask id="mask0_874_59316" style="mask-type:alpha" maskUnits="userSpaceOnUse" x="0" y="-281" width="1601" height="1511">
<path d="M0 -281H1600V1230H783.333H0V-281Z" fill="black"/>
</mask>
<g mask="url(#mask0_874_59316)">
<g filter="url(#filter0_f_874_59316)">
<ellipse cx="1273.88" cy="1123.33" rx="1273.88" ry="1123.33" transform="matrix(0.923932 -0.382558 0.455158 0.890411 -52.9258 -210.45)" fill="#FFCFAE"/>
</g>
<g filter="url(#filter1_f_874_59316)">
<ellipse cx="670.651" cy="591.289" rx="670.651" ry="591.289" transform="matrix(0.923932 -0.382558 0.455158 0.890411 429.91 148.186)" fill="#EB73FF" fill-opacity="0.55"/>
</g>
<g opacity="0.6" filter="url(#filter2_f_874_59316)">
<path d="M740.672 -571.788C966.25 -130.499 1021.77 182.535 690.877 681.571C483.749 852.456 -12.7686 274.868 -238.346 -166.422C-463.923 -607.711 -427.629 -1056.19 -157.281 -1168.13C113.068 -1280.07 515.095 -1013.08 740.672 -571.788Z" fill="white"/>
</g>
<g opacity="0.6">
<path d="M-120.503 -352.931C463.025 -459.69 1046.55 -459.69 1630.08 -352.931C1832.21 49.0423 1862.86 451.021 1722.03 853.005C1077.19 970.964 432.339 970.964 -212.507 853.005C-353.3 451.011 -322.632 49.032 -120.503 -352.931Z" stroke="white" stroke-width="0.6" stroke-miterlimit="10"/>
<path d="M-229.875 800.568C426.579 908.332 1083.02 908.332 1739.46 800.568" stroke="white" stroke-width="0.6" stroke-miterlimit="10"/>
<path d="M-245.332 748.148C418.839 845.695 1090.72 845.695 1754.89 748.148" stroke="white" stroke-width="0.6" stroke-miterlimit="10"/>
<path d="M-258.838 695.712C414.871 783.104 1094.69 783.104 1768.4 695.712" stroke="white" stroke-width="0.6" stroke-miterlimit="10"/>
<path d="M-270.396 643.247C411.481 720.531 1098.08 720.531 1779.96 643.247" stroke="white" stroke-width="0.6" stroke-miterlimit="10"/>
<path d="M-280.006 590.844C408.679 658.065 1100.9 658.065 1789.59 590.844" stroke="white" stroke-width="0.6" stroke-miterlimit="10"/>
<path d="M-287.676 538.408C406.452 595.613 1103.12 595.613 1797.25 538.408" stroke="white" stroke-width="0.6" stroke-miterlimit="10"/>
<path d="M-293.332 485.975C404.875 533.193 1104.81 533.193 1803.01 485.975" stroke="white" stroke-width="0.6" stroke-miterlimit="10"/>
<path d="M-297.186 433.554C404.13 470.819 1105.45 470.819 1806.76 433.554" stroke="white" stroke-width="0.6" stroke-miterlimit="10"/>
<path d="M-299.016 381.117C403.519 408.484 1106.05 408.484 1808.59 381.117" stroke="white" stroke-width="0.6" stroke-miterlimit="10"/>
<path d="M-298.91 328.682C403.555 346.201 1106.02 346.201 1808.48 328.682" stroke="white" stroke-width="0.6" stroke-miterlimit="10"/>
<path d="M-296.855 276.245C404.242 283.948 1105.34 283.948 1806.44 276.245" stroke="white" stroke-width="0.6" stroke-miterlimit="10"/>
<path d="M-292.863 223.811C405.57 221.76 1104 221.76 1802.42 223.811" stroke="white" stroke-width="0.6" stroke-miterlimit="10"/>
<path d="M-286.902 171.392C407.56 159.586 1102.02 159.586 1796.49 171.392" stroke="white" stroke-width="0.6" stroke-miterlimit="10"/>
<path d="M-278.965 118.956C410.23 97.477 1099.43 97.477 1788.64 118.956" stroke="white" stroke-width="0.6" stroke-miterlimit="10"/>
<path d="M-269.191 66.5201C413.481 35.3891 1096.15 35.3891 1778.83 66.5201" stroke="white" stroke-width="0.6" stroke-miterlimit="10"/>
<path d="M-257.414 14.0841C416.944 -26.6426 1092.63 -26.6426 1766.99 14.0841" stroke="white" stroke-width="0.6" stroke-miterlimit="10"/>
<path d="M1575.37 -362.625C1764.87 45.8108 1793.61 454.595 1661.57 863.729" stroke="white" stroke-width="0.6" stroke-miterlimit="10"/>
<path d="M1520.67 -371.702C1697.54 42.7752 1724.37 457.924 1601.15 873.746" stroke="white" stroke-width="0.6" stroke-miterlimit="10"/>
<path d="M1466.03 -380.149C1630.26 39.9797 1655.17 461.042 1540.75 883.038" stroke="white" stroke-width="0.6" stroke-miterlimit="10"/>
<path d="M1411.25 -387.967C1562.86 37.3628 1585.86 463.923 1480.24 891.715" stroke="white" stroke-width="0.6" stroke-miterlimit="10"/>
<path d="M1356.55 -395.152C1495.51 34.9572 1516.58 466.564 1419.78 899.669" stroke="white" stroke-width="0.6" stroke-miterlimit="10"/>
<path d="M1301.85 -401.719C1428.18 32.7809 1447.34 468.999 1359.32 906.934" stroke="white" stroke-width="0.6" stroke-miterlimit="10"/>
<path d="M1247.14 -407.613C1360.85 30.8149 1378.09 471.187 1298.85 913.503" stroke="white" stroke-width="0.6" stroke-miterlimit="10"/>
<path d="M1192.44 -412.982C1293.51 29.0256 1308.84 473.167 1238.43 919.442" stroke="white" stroke-width="0.6" stroke-miterlimit="10"/>
<path d="M1137.72 -417.676C1226.16 27.4915 1239.57 474.905 1177.97 924.565" stroke="white" stroke-width="0.6" stroke-miterlimit="10"/>
<path d="M1083.02 -421.736C1158.78 26.1183 1170.28 476.383 1117.52 929.059" stroke="white" stroke-width="0.6" stroke-miterlimit="10"/>
<path d="M1028.32 -425.183C1091.49 24.9697 1101.07 477.65 1057.06 932.86" stroke="white" stroke-width="0.6" stroke-miterlimit="10"/>
<path d="M973.623 -427.999C1024.13 24.0303 1031.79 478.686 996.624 935.967" stroke="white" stroke-width="0.6" stroke-miterlimit="10"/>
<path d="M918.908 -430.184C956.83 24.6599 962.596 482.429 936.149 938.398" stroke="white" stroke-width="0.6" stroke-miterlimit="10"/>
<path d="M864.209 -431.754C889.482 24.9653 893.306 482.981 875.664 940.197" stroke="white" stroke-width="0.6" stroke-miterlimit="10"/>
<path d="M809.494 -432.691C822.12 22.4562 824.036 480.404 815.241 941.152" stroke="white" stroke-width="0.6" stroke-miterlimit="10"/>
<path d="M754.787 -433L754.787 941.505" stroke="white" stroke-width="0.6" stroke-miterlimit="10"/>
<path d="M700.088 -432.691C687.445 22.4562 685.525 480.404 694.328 941.152" stroke="white" stroke-width="0.6" stroke-miterlimit="10"/>
<path d="M645.371 -431.754C620.085 24.9644 616.248 482.98 633.877 940.197" stroke="white" stroke-width="0.6" stroke-miterlimit="10"/>
<path d="M590.675 -430.184C552.756 24.6599 546.985 482.429 573.421 938.398" stroke="white" stroke-width="0.6" stroke-miterlimit="10"/>
<path d="M535.963 -427.999C485.459 24.0303 477.797 478.686 512.975 935.967" stroke="white" stroke-width="0.6" stroke-miterlimit="10"/>
<path d="M481.209 -425.183C418.079 24.9697 408.5 477.65 452.474 932.86" stroke="white" stroke-width="0.6" stroke-miterlimit="10"/>
<path d="M426.561 -421.736C350.753 26.1183 339.254 476.383 392.066 929.059" stroke="white" stroke-width="0.6" stroke-miterlimit="10"/>
<path d="M371.846 -417.676C283.421 27.4915 270.007 474.905 331.604 924.565" stroke="white" stroke-width="0.6" stroke-miterlimit="10"/>
<path d="M317.143 -412.982C216.075 29.0256 200.745 473.167 271.154 919.442" stroke="white" stroke-width="0.6" stroke-miterlimit="10"/>
<path d="M262.442 -407.613C148.739 30.8149 131.49 471.187 210.693 913.503" stroke="white" stroke-width="0.6" stroke-miterlimit="10"/>
<path d="M207.725 -401.719C81.3963 32.7809 62.2396 468.999 150.256 906.934" stroke="white" stroke-width="0.6" stroke-miterlimit="10"/>
<path d="M153.028 -395.152C14.055 34.9572 -7.02601 466.564 89.7846 899.669" stroke="white" stroke-width="0.6" stroke-miterlimit="10"/>
<path d="M98.3133 -387.967C-53.2765 37.3628 -76.2863 463.923 29.2841 891.715" stroke="white" stroke-width="0.6" stroke-miterlimit="10"/>
<path d="M43.6526 -380.149C-120.581 39.9797 -145.489 461.042 -31.0713 883.038" stroke="white" stroke-width="0.6" stroke-miterlimit="10"/>
</g>
</g>
</g>
</g>
<defs>
<filter id="filter0_f_874_59316" x="-96.3697" y="-1258.59" width="3463.42" height="3122.06" filterUnits="userSpaceOnUse" color-interpolation-filters="sRGB">
<feFlood flood-opacity="0" result="BackgroundImageFix"/>
<feBlend mode="normal" in="SourceGraphic" in2="BackgroundImageFix" result="shape"/>
<feGaussianBlur stdDeviation="224.075" result="effect1_foregroundBlur_874_59316"/>
</filter>
<filter id="filter1_f_874_59316" x="343.906" y="-466.735" width="1949.54" height="1769.7" filterUnits="userSpaceOnUse" color-interpolation-filters="sRGB">
<feFlood flood-opacity="0" result="BackgroundImageFix"/>
<feBlend mode="normal" in="SourceGraphic" in2="BackgroundImageFix" result="shape"/>
<feGaussianBlur stdDeviation="149.52" result="effect1_foregroundBlur_874_59316"/>
</filter>
<filter id="filter2_f_874_59316" x="-590.872" y="-1398.12" width="1719.82" height="2314.91" filterUnits="userSpaceOnUse" color-interpolation-filters="sRGB">
<feFlood flood-opacity="0" result="BackgroundImageFix"/>
<feBlend mode="normal" in="SourceGraphic" in2="BackgroundImageFix" result="shape"/>
<feGaussianBlur stdDeviation="102.244" result="effect1_foregroundBlur_874_59316"/>
</filter>
<clipPath id="clip0_874_59316">
<rect width="1600" height="949.866" fill="white"/>
</clipPath>
</defs>
</svg>
