<svg width="1440" height="1024" viewBox="0 0 1440 1024" fill="none" xmlns="http://www.w3.org/2000/svg">
<g opacity="0.3">
<mask id="mask0_3250_22775" style="mask-type:alpha" maskUnits="userSpaceOnUse" x="0" y="0" width="1440" height="1025">
<path d="M0 0H1440V1024.2H705H0V0Z" fill="black"/>
</mask>
<g mask="url(#mask0_3250_22775)">
<g filter="url(#filter0_f_3250_22775)">
<ellipse cx="1185.42" cy="1185.13" rx="1185.42" ry="1185.13" transform="matrix(0.89359 -0.448885 0.388282 0.921541 -370.375 -213.287)" fill="#A6DAFF"/>
</g>
<g filter="url(#filter1_f_3250_22775)">
<ellipse cx="624.081" cy="623.818" rx="624.081" ry="623.818" transform="matrix(0.89359 -0.448885 0.388282 0.921541 64.1758 178.308)" fill="#FD48CE"/>
</g>
<g filter="url(#filter2_f_3250_22775)">
<path d="M1083.36 -489.04C1324.49 83.2575 1383.84 489.223 1030.13 1136.41C808.72 1358.03 277.965 608.967 36.8333 36.6699C-204.298 -535.628 -165.502 -1117.25 123.488 -1262.42C412.478 -1407.59 842.227 -1061.34 1083.36 -489.04Z" fill="white"/>
</g>
<rect y="680.253" width="1440" height="854.956" fill="url(#paint0_linear_3250_22775)" fill-opacity="0.6"/>
</g>
</g>
<defs>
<filter id="filter0_f_3250_22775" x="-409.474" y="-1271.75" width="3117.08" height="3236.97" filterUnits="userSpaceOnUse" color-interpolation-filters="sRGB">
<feFlood flood-opacity="0" result="BackgroundImageFix"/>
<feBlend mode="normal" in="SourceGraphic" in2="BackgroundImageFix" result="shape"/>
<feGaussianBlur stdDeviation="201.668" result="effect1_foregroundBlur_3250_22775"/>
</filter>
<filter id="filter1_f_3250_22775" x="-13.2278" y="-435.739" width="1754.59" height="1817.56" filterUnits="userSpaceOnUse" color-interpolation-filters="sRGB">
<feFlood flood-opacity="0" result="BackgroundImageFix"/>
<feBlend mode="normal" in="SourceGraphic" in2="BackgroundImageFix" result="shape"/>
<feGaussianBlur stdDeviation="134.568" result="effect1_foregroundBlur_3250_22775"/>
</filter>
<filter id="filter2_f_3250_22775" x="-340.001" y="-1514.08" width="1838.41" height="2908.94" filterUnits="userSpaceOnUse" color-interpolation-filters="sRGB">
<feFlood flood-opacity="0" result="BackgroundImageFix"/>
<feBlend mode="normal" in="SourceGraphic" in2="BackgroundImageFix" result="shape"/>
<feGaussianBlur stdDeviation="109.294" result="effect1_foregroundBlur_3250_22775"/>
</filter>
<linearGradient id="paint0_linear_3250_22775" x1="618.5" y1="1452.33" x2="618.5" y2="710.787" gradientUnits="userSpaceOnUse">
<stop stop-color="white"/>
<stop offset="1" stop-color="white" stop-opacity="0"/>
</linearGradient>
</defs>
</svg>
