<svg width="20" height="16" viewBox="0 0 20 16" fill="none" xmlns="http://www.w3.org/2000/svg">
    <path
      d="M16.9419 1.60281C15.6279 1.00122 14.2407 0.574428 12.8158 0.333344C12.6208 0.681916 12.4443 1.04055 12.2872 1.40775C10.7694 1.17903 9.22584 1.17903 7.70801 1.40775C7.55079 1.04059 7.37437 0.681959 7.17946 0.333344C5.75361 0.576464 4.3655 1.00427 3.05016 1.60595C0.43887 5.4694 -0.269009 9.2369 0.0849305 12.9509C1.61417 14.0808 3.32582 14.9401 5.14548 15.4914C5.55522 14.9403 5.91778 14.3557 6.22933 13.7437C5.63759 13.5227 5.06646 13.2501 4.52255 12.9289C4.6657 12.8251 4.8057 12.7181 4.94098 12.6143C6.52364 13.3586 8.25103 13.7445 9.99996 13.7445C11.7489 13.7445 13.4763 13.3586 15.0589 12.6143C15.1958 12.726 15.3358 12.8329 15.4774 12.9289C14.9324 13.2506 14.3602 13.5238 13.7675 13.7453C14.0786 14.357 14.4412 14.9411 14.8513 15.4914C16.6725 14.9423 18.3855 14.0834 19.915 12.9525C20.3303 8.64542 19.2055 4.91254 16.9419 1.60281ZM6.67765 10.6668C5.69134 10.6668 4.87649 9.77174 4.87649 8.67059C4.87649 7.56945 5.66302 6.66651 6.6745 6.66651C7.68598 6.66651 8.49454 7.56945 8.47724 8.67059C8.45993 9.77174 7.68284 10.6668 6.67765 10.6668ZM13.3223 10.6668C12.3344 10.6668 11.5227 9.77174 11.5227 8.67059C11.5227 7.56945 12.3092 6.66651 13.3223 6.66651C14.3353 6.66651 15.1376 7.56945 15.1203 8.67059C15.103 9.77174 14.3275 10.6668 13.3223 10.6668Z"
      fill="#5865F2"
    />
  </svg>