<svg width="263" height="150" viewBox="0 0 263 150" fill="none" xmlns="http://www.w3.org/2000/svg">
    <rect width="263" height="150" rx="7" fill="#F3F3FF"/>
    <path d="M149.63 43.4921C149.63 39.2342 154.646 37.1018 157.58 40.1126L177.092 71.1727C178.911 73.0392 178.911 76.0653 177.092 77.9318L157.58 108.992C154.646 112.003 149.63 109.87 149.63 105.612V102.039C149.63 99.3991 147.545 97.2593 144.973 97.2593H130.556C128.062 97.2593 126.041 95.1846 126.041 92.6252C126.041 90.0659 128.062 87.9911 130.556 87.9911H131.054C133.614 87.9911 135.689 85.9163 135.689 83.3568C135.689 80.7973 133.614 78.7224 131.054 78.7224H111.993C109.748 78.7224 107.929 76.8551 107.929 74.5517C107.929 72.2483 109.748 70.381 111.993 70.381H123.633C126.193 70.381 128.267 68.3063 128.267 65.747C128.267 63.1877 126.193 61.113 123.633 61.113H98.9464C96.4525 61.113 94.4307 59.0382 94.4307 56.4789C94.4307 53.9196 96.4525 51.8448 98.9464 51.8448L144.973 51.8448C147.545 51.8448 149.63 49.705 149.63 47.0654V43.4921Z" fill="#F1F1F1" fill-opacity="0.1"/>
    <path d="M149.63 43.4921C149.63 39.2342 154.646 37.1018 157.58 40.1126L177.092 71.1727C178.911 73.0392 178.911 76.0653 177.092 77.9318L157.58 108.992C154.646 112.003 149.63 109.87 149.63 105.612V102.039C149.63 99.3991 147.545 97.2593 144.973 97.2593H130.556C128.062 97.2593 126.041 95.1846 126.041 92.6252C126.041 90.0659 128.062 87.9911 130.556 87.9911H131.054C133.614 87.9911 135.689 85.9163 135.689 83.3568C135.689 80.7973 133.614 78.7224 131.054 78.7224H111.993C109.748 78.7224 107.929 76.8551 107.929 74.5517C107.929 72.2483 109.748 70.381 111.993 70.381H123.633C126.193 70.381 128.267 68.3063 128.267 65.747C128.267 63.1877 126.193 61.113 123.633 61.113H98.9464C96.4525 61.113 94.4307 59.0382 94.4307 56.4789C94.4307 53.9196 96.4525 51.8448 98.9464 51.8448L144.973 51.8448C147.545 51.8448 149.63 49.705 149.63 47.0654V43.4921Z" fill="url(#paint0_linear_3280_49554)" fill-opacity="0.7"/>
    <path d="M87.9718 51.4167C85.4778 51.4167 83.4561 53.4915 83.4561 56.0508C83.4561 58.6101 85.4778 60.6849 87.9718 60.6849C90.4657 60.6849 92.4875 58.6101 92.4875 56.0508C92.4875 53.4915 90.4657 51.4167 87.9718 51.4167Z" fill="#F1F1F1" fill-opacity="0.1"/>
    <path d="M87.9718 51.4167C85.4778 51.4167 83.4561 53.4915 83.4561 56.0508C83.4561 58.6101 85.4778 60.6849 87.9718 60.6849C90.4657 60.6849 92.4875 58.6101 92.4875 56.0508C92.4875 53.4915 90.4657 51.4167 87.9718 51.4167Z" fill="url(#paint1_linear_3280_49554)" fill-opacity="0.7"/>
    <path d="M96.2371 73.6601C96.2371 71.1007 98.2588 69.026 100.753 69.026C103.247 69.026 105.268 71.1007 105.268 73.6601C105.268 76.2194 103.247 78.2942 100.753 78.2942C98.2588 78.2942 96.2371 76.2194 96.2371 73.6601Z" fill="#F1F1F1" fill-opacity="0.1"/>
    <path d="M96.2371 73.6601C96.2371 71.1007 98.2588 69.026 100.753 69.026C103.247 69.026 105.268 71.1007 105.268 73.6601C105.268 76.2194 103.247 78.2942 100.753 78.2942C98.2588 78.2942 96.2371 76.2194 96.2371 73.6601Z" fill="url(#paint2_linear_3280_49554)" fill-opacity="0.7"/>
    <path d="M118.296 88.4893C115.802 88.4893 113.78 90.5641 113.78 93.1234C113.78 95.6828 115.802 97.7575 118.296 97.7575C120.79 97.7575 122.811 95.6828 122.811 93.1234C122.811 90.5641 120.79 88.4893 118.296 88.4893Z" fill="#F1F1F1" fill-opacity="0.1"/>
    <path d="M118.296 88.4893C115.802 88.4893 113.78 90.5641 113.78 93.1234C113.78 95.6828 115.802 97.7575 118.296 97.7575C120.79 97.7575 122.811 95.6828 122.811 93.1234C122.811 90.5641 120.79 88.4893 118.296 88.4893Z" fill="url(#paint3_linear_3280_49554)" fill-opacity="0.7"/>
    <path d="M149.911 43.4922C149.911 39.4789 154.612 37.4983 157.361 40.2921L176.854 71.3223L176.87 71.3477L176.891 71.3692C178.603 73.1266 178.603 75.9781 176.891 77.7354L176.87 77.7569L176.854 77.7823L157.361 108.812C154.612 111.606 149.911 109.626 149.911 105.612V102.039C149.911 99.2514 147.707 96.9786 144.973 96.9786H130.557C128.225 96.9786 126.321 95.0362 126.321 92.6251C126.321 90.214 128.225 88.2715 130.557 88.2715H131.055C133.769 88.2713 135.97 86.071 135.97 83.3565C135.97 80.6421 133.769 78.4417 131.055 78.4415H111.993C109.911 78.4415 108.21 76.7069 108.21 74.5518C108.21 72.3966 109.911 70.6622 111.993 70.6622H123.633C126.347 70.6622 128.548 68.4615 128.548 65.7471C128.548 63.0327 126.347 60.8321 123.633 60.8321H98.9463C96.6143 60.832 94.7119 58.8896 94.7119 56.4786C94.7121 54.0677 96.6145 52.1261 98.9463 52.126L144.973 52.126C147.707 52.126 149.911 49.8532 149.911 47.0655V43.4922ZM118.296 88.7706C120.628 88.7708 122.53 90.7123 122.53 93.1231C122.53 95.5341 120.628 97.4764 118.296 97.4766C115.964 97.4766 114.061 95.5342 114.061 93.1231C114.061 90.7121 115.964 88.7706 118.296 88.7706ZM100.753 69.3067C103.085 69.3068 104.987 71.2492 104.987 73.6602C104.987 76.0712 103.085 78.0136 100.753 78.0137C98.421 78.0137 96.5177 76.0713 96.5176 73.6602C96.5176 71.2491 98.4209 69.3067 100.753 69.3067ZM87.9717 51.6973C90.3037 51.6973 92.207 53.6397 92.207 56.0508C92.207 58.4619 90.3037 60.4044 87.9717 60.4044C85.6397 60.4043 83.7373 58.4619 83.7373 56.0508C83.7373 53.6398 85.6397 51.6974 87.9717 51.6973Z" stroke="#F1F1F1" stroke-opacity="0.1" stroke-width="0.561798"/>
    <path d="M149.911 43.4922C149.911 39.4789 154.612 37.4983 157.361 40.2921L176.854 71.3223L176.87 71.3477L176.891 71.3692C178.603 73.1266 178.603 75.9781 176.891 77.7354L176.87 77.7569L176.854 77.7823L157.361 108.812C154.612 111.606 149.911 109.626 149.911 105.612V102.039C149.911 99.2514 147.707 96.9786 144.973 96.9786H130.557C128.225 96.9786 126.321 95.0362 126.321 92.6251C126.321 90.214 128.225 88.2715 130.557 88.2715H131.055C133.769 88.2713 135.97 86.071 135.97 83.3565C135.97 80.6421 133.769 78.4417 131.055 78.4415H111.993C109.911 78.4415 108.21 76.7069 108.21 74.5518C108.21 72.3966 109.911 70.6622 111.993 70.6622H123.633C126.347 70.6622 128.548 68.4615 128.548 65.7471C128.548 63.0327 126.347 60.8321 123.633 60.8321H98.9463C96.6143 60.832 94.7119 58.8896 94.7119 56.4786C94.7121 54.0677 96.6145 52.1261 98.9463 52.126L144.973 52.126C147.707 52.126 149.911 49.8532 149.911 47.0655V43.4922ZM118.296 88.7706C120.628 88.7708 122.53 90.7123 122.53 93.1231C122.53 95.5341 120.628 97.4764 118.296 97.4766C115.964 97.4766 114.061 95.5342 114.061 93.1231C114.061 90.7121 115.964 88.7706 118.296 88.7706ZM100.753 69.3067C103.085 69.3068 104.987 71.2492 104.987 73.6602C104.987 76.0712 103.085 78.0136 100.753 78.0137C98.421 78.0137 96.5177 76.0713 96.5176 73.6602C96.5176 71.2491 98.4209 69.3067 100.753 69.3067ZM87.9717 51.6973C90.3037 51.6973 92.207 53.6397 92.207 56.0508C92.207 58.4619 90.3037 60.4044 87.9717 60.4044C85.6397 60.4043 83.7373 58.4619 83.7373 56.0508C83.7373 53.6398 85.6397 51.6974 87.9717 51.6973Z" stroke="url(#paint4_linear_3280_49554)" stroke-opacity="0.2" stroke-width="0.561798"/>
    <g filter="url(#filter0_d_3280_49554)">
        <path d="M165.901 73.1295L154.258 80.2769L142.607 73.1295L154.258 53.0428L165.901 73.1295ZM154.258 82.5721L142.607 75.4247L154.258 92.4768L165.909 75.4247L154.258 82.5721Z" fill="white"/>
    </g>
    <defs>
        <filter id="filter0_d_3280_49554" x="131.507" y="41.9428" width="45.502" height="61.634" filterUnits="userSpaceOnUse" color-interpolation-filters="sRGB">
            <feFlood flood-opacity="0" result="BackgroundImageFix"/>
            <feColorMatrix in="SourceAlpha" type="matrix" values="0 0 0 0 0 0 0 0 0 0 0 0 0 0 0 0 0 0 127 0" result="hardAlpha"/>
            <feOffset/>
            <feGaussianBlur stdDeviation="5.55"/>
            <feColorMatrix type="matrix" values="0 0 0 0 0.187339 0 0 0 0 0.317424 0 0 0 0 0.91463 0 0 0 1 0"/>
            <feBlend mode="normal" in2="BackgroundImageFix" result="effect1_dropShadow_3280_49554"/>
            <feBlend mode="normal" in="SourceGraphic" in2="effect1_dropShadow_3280_49554" result="shape"/>
        </filter>
        <linearGradient id="paint0_linear_3280_49554" x1="73.816" y1="53.0429" x2="205.256" y2="54.9343" gradientUnits="userSpaceOnUse">
            <stop stop-color="#5498FF" stop-opacity="0"/>
            <stop offset="1" stop-color="#8940FF"/>
        </linearGradient>
        <linearGradient id="paint1_linear_3280_49554" x1="73.816" y1="53.0429" x2="205.256" y2="54.9343" gradientUnits="userSpaceOnUse">
            <stop stop-color="#5498FF" stop-opacity="0"/>
            <stop offset="1" stop-color="#8940FF"/>
        </linearGradient>
        <linearGradient id="paint2_linear_3280_49554" x1="73.816" y1="53.0429" x2="205.256" y2="54.9343" gradientUnits="userSpaceOnUse">
            <stop stop-color="#5498FF" stop-opacity="0"/>
            <stop offset="1" stop-color="#8940FF"/>
        </linearGradient>
        <linearGradient id="paint3_linear_3280_49554" x1="73.816" y1="53.0429" x2="205.256" y2="54.9343" gradientUnits="userSpaceOnUse">
            <stop stop-color="#5498FF" stop-opacity="0"/>
            <stop offset="1" stop-color="#8940FF"/>
        </linearGradient>
        <linearGradient id="paint4_linear_3280_49554" x1="87.4144" y1="53.0428" x2="189.512" y2="71.8317" gradientUnits="userSpaceOnUse">
            <stop stop-color="#5498FF"/>
            <stop offset="1" stop-color="#8940FF"/>
        </linearGradient>
    </defs>
</svg>
