<svg width="94" height="94" viewBox="0 0 94 94" fill="none" xmlns="http://www.w3.org/2000/svg">
<path opacity="0.4" fill-rule="evenodd" clip-rule="evenodd" d="M79.9001 34.4667C79.9001 43.9844 72.1844 51.7001 62.6667 51.7001C60.4556 51.7001 58.3418 51.2837 56.3993 50.525L53.2667 50.1334L50.1334 50.9167L47.7834 62.6667L33.6834 65.0167L32.9001 73.6334L17.2334 75.9834V72.0667L47.6664 42.9569C46.245 40.4509 45.4334 37.5536 45.4334 34.4667C45.4334 24.949 53.149 17.2334 62.6667 17.2334C72.1844 17.2334 79.9001 24.949 79.9001 34.4667ZM70.5001 28.2001C70.5001 31.661 67.6944 34.4667 64.2334 34.4667C60.7724 34.4667 57.9667 31.661 57.9667 28.2001C57.9667 24.7391 60.7724 21.9334 64.2334 21.9334C67.6944 21.9334 70.5001 24.7391 70.5001 28.2001Z" fill="#363FF9"/>
<path fill-rule="evenodd" clip-rule="evenodd" d="M44.893 17.2863C53.164 9.01525 66.574 9.01525 74.845 17.2863C83.116 25.5573 83.116 38.9672 74.845 47.2383C68.48 53.6033 59.0747 55.068 51.3105 51.641L49.5929 62.2535C49.3405 63.8133 48.0549 64.9987 46.4798 65.124L35.2172 66.0204C35.0658 66.0324 34.9482 66.157 34.9449 66.3088L34.8061 72.6164C34.7673 74.3802 33.3966 75.8268 31.6375 75.9604L18.2405 76.978C16.2582 77.1285 14.5637 75.5674 14.5516 73.5795L14.502 65.4329C14.4974 64.6822 14.7936 63.9609 15.3245 63.43L39.7777 38.9768C37.3217 31.6101 39.0239 23.1554 44.893 17.2863ZM72.6294 19.5019C65.582 12.4545 54.156 12.4545 47.1086 19.5019C42.0769 24.5336 40.6355 31.7995 42.7934 38.1135C43.1338 39.1096 42.9203 40.2654 42.1237 41.062L17.6361 65.5496L17.6849 73.5604C17.6859 73.7319 17.8321 73.8666 18.0031 73.8536L31.4002 72.836C31.5519 72.8245 31.6702 72.6997 31.6735 72.5475L31.8123 66.2399C31.851 64.4808 33.2147 63.0365 34.9686 62.8969L46.2312 62.0006C46.3672 61.9898 46.4781 61.8875 46.4998 61.7529L48.2724 50.8006C48.5931 48.8192 50.7216 47.9277 52.3547 48.6751C59.0164 51.7239 67.1487 50.5034 72.6294 45.0227C79.6768 37.9753 79.6768 26.5492 72.6294 19.5019ZM59.3913 22.9591C62.092 20.2584 66.4707 20.2584 69.1714 22.9591C71.8721 25.6598 71.8721 30.0385 69.1714 32.7392C66.4707 35.4399 62.092 35.4399 59.3913 32.7392C56.6906 30.0385 56.6906 25.6598 59.3913 22.9591ZM66.9558 25.1747C65.4787 23.6977 63.084 23.6977 61.6069 25.1747C60.1299 26.6518 60.1299 29.0466 61.6069 30.5236C63.084 32.0007 65.4787 32.0007 66.9558 30.5236C68.4328 29.0466 68.4328 26.6518 66.9558 25.1747Z" fill="#020617"/>
</svg>
