<svg width="200" height="26" viewBox="0 0 200 26" fill="none" xmlns="http://www.w3.org/2000/svg">
<path d="M39.8633 19.6346C38.7428 19.6346 37.7428 19.4539 36.8633 19.0924C35.9837 18.7189 35.291 18.1828 34.7849 17.484C34.2789 16.7852 34.0199 15.9539 34.0078 14.99H36.8452C36.8693 15.7611 37.1404 16.3515 37.6584 16.7611C38.1765 17.1587 38.8994 17.3575 39.8271 17.3575C40.55 17.3575 41.0862 17.225 41.4356 16.9599C41.797 16.6828 41.9777 16.3153 41.9777 15.8575C41.9777 15.4719 41.8633 15.1647 41.6344 14.9358C41.4175 14.6948 41.1163 14.502 40.7308 14.3575C40.3573 14.2129 39.803 14.0382 39.0681 13.8334L38.7066 13.7249C37.8271 13.4719 37.0861 13.2069 36.4837 12.9297C35.8934 12.6406 35.4054 12.255 35.0199 11.7731C34.6464 11.2912 34.4596 10.6827 34.4596 9.9478C34.4596 8.69478 34.8934 7.75502 35.7608 7.12851C36.6404 6.48995 37.809 6.17067 39.2669 6.17067C40.2669 6.17067 41.1585 6.33934 41.9416 6.6767C42.7368 7.002 43.3633 7.48393 43.8211 8.12249C44.291 8.749 44.544 9.48997 44.5802 10.3454H41.7609C41.6645 9.73093 41.4055 9.26105 40.9838 8.93575C40.5741 8.61044 40.0018 8.44779 39.2669 8.44779C38.6524 8.44779 38.1705 8.55623 37.8211 8.77309C37.4837 8.98996 37.3151 9.31527 37.3151 9.749C37.3151 10.0984 37.4115 10.3815 37.6042 10.5984C37.797 10.8032 38.0621 10.9719 38.3994 11.1044C38.7368 11.237 39.2428 11.3996 39.9175 11.5924C41.0259 11.9056 41.8994 12.1948 42.538 12.4599C43.1886 12.7129 43.7308 13.0924 44.1645 13.5984C44.6103 14.1045 44.8332 14.7792 44.8332 15.6225C44.8332 16.8394 44.3995 17.8153 43.532 18.5503C42.6645 19.2732 41.4416 19.6346 39.8633 19.6346ZM56.9883 9.83937C57.916 9.83937 58.6329 10.1225 59.1389 10.6888C59.6449 11.243 59.898 12.0322 59.898 13.0563V19.3635H57.404V13.8153C57.404 13.1165 57.3015 12.6225 57.0967 12.3334C56.904 12.0322 56.5305 11.8815 55.9762 11.8815C55.4341 11.8815 55.0064 12.0562 54.6931 12.4056C54.3798 12.755 54.2232 13.2551 54.2232 13.9057V19.3635H51.7473V13.8153C51.7473 13.1165 51.6509 12.6225 51.4581 12.3334C51.2654 12.0322 50.8919 11.8815 50.3376 11.8815C49.7955 11.8815 49.3678 12.0562 49.0545 12.4056C48.7413 12.755 48.5846 13.2551 48.5846 13.9057V19.3635H46.1087V10.1285H48.5846V11.3936H48.6208C48.8979 10.9478 49.2774 10.5803 49.7593 10.2912C50.2413 9.98997 50.8075 9.83937 51.4581 9.83937C52.0606 9.83937 52.5666 9.98395 52.9762 10.2731C53.3979 10.5623 53.6991 10.9599 53.8798 11.4659H53.916C54.3497 10.9358 54.8015 10.5321 55.2714 10.255C55.7413 9.97792 56.3136 9.83937 56.9883 9.83937ZM64.153 19.6346C63.2494 19.6346 62.5265 19.3936 61.9843 18.9117C61.4422 18.4177 61.1711 17.7671 61.1711 16.9599C61.1711 16.0442 61.4843 15.3635 62.1108 14.9177C62.7494 14.4599 63.659 14.1105 64.8398 13.8695C64.9362 13.8454 65.2313 13.7852 65.7253 13.6888C66.2193 13.5924 66.5928 13.4538 66.8458 13.2731C67.0988 13.0804 67.2253 12.8454 67.2253 12.5683C67.2253 12.255 67.1109 12.0141 66.8819 11.8454C66.653 11.6647 66.2916 11.5743 65.7976 11.5743C65.1831 11.5743 64.7313 11.6948 64.4422 11.9358C64.1651 12.1767 64.0024 12.5563 63.9542 13.0743H61.5687C61.6169 12.1105 61.9964 11.3273 62.7072 10.7249C63.4181 10.1225 64.4843 9.82129 65.906 9.82129C67.1109 9.82129 68.0326 10.1044 68.6711 10.6707C69.3097 11.2249 69.629 12.1406 69.629 13.4177V17.2491C69.629 17.5382 69.6531 17.7491 69.7012 17.8816C69.7615 18.0021 69.8639 18.0623 70.0085 18.0623C70.0928 18.0623 70.1711 18.0563 70.2434 18.0442V19.3093C69.7253 19.4057 69.2796 19.4539 68.9061 19.4539C68.388 19.4539 68.0024 19.3515 67.7494 19.1467C67.4964 18.9418 67.3398 18.6165 67.2795 18.1707H67.2434C66.9181 18.6165 66.4904 18.972 65.9603 19.237C65.4301 19.5021 64.8277 19.6346 64.153 19.6346ZM65.0566 17.8635C65.7072 17.8635 66.2313 17.6587 66.6289 17.2491C67.0265 16.8394 67.2253 16.3153 67.2253 15.6768V14.7008C66.9723 14.8334 66.394 15.0081 65.4904 15.2249C64.8518 15.3575 64.394 15.5442 64.1169 15.7852C63.8518 16.0141 63.7193 16.3274 63.7193 16.725C63.7193 17.484 64.1651 17.8635 65.0566 17.8635ZM76.4198 10.002C76.7572 10.002 77.0282 10.0201 77.2331 10.0562V12.2791C76.9921 12.243 76.7933 12.2249 76.6367 12.2249C75.9017 12.2249 75.2812 12.4659 74.7752 12.9478C74.2812 13.4177 74.0342 14.0623 74.0342 14.8816V19.3635H71.5583V10.1285H74.0342V11.7189H74.0704C74.3114 11.1767 74.6306 10.755 75.0282 10.4538C75.4258 10.1526 75.8897 10.002 76.4198 10.002ZM82.4035 17.6105C82.6203 17.6105 82.8794 17.5864 83.1806 17.5382V19.3455C82.6505 19.4659 82.1505 19.5262 81.6806 19.5262C80.7408 19.5262 80.048 19.2973 79.6022 18.8394C79.1685 18.3695 78.9516 17.5924 78.9516 16.5081V12.0261H77.6504V10.1285H78.9516V7.39959H81.4276V10.1285H83.0902V12.0261H81.4276V16.49C81.4276 16.9478 81.4998 17.2491 81.6444 17.3936C81.8011 17.5382 82.0541 17.6105 82.4035 17.6105ZM93.0581 19.3635H90.2208L86.9497 6.44175H89.769L91.6666 15.731H91.7027L93.9618 6.44175H96.6726L98.9317 15.731H98.9678L100.847 6.44175H103.667L100.396 19.3635H97.5582L95.3353 10.4358H95.2991L93.0581 19.3635ZM106.369 19.6346C105.465 19.6346 104.743 19.3936 104.2 18.9117C103.658 18.4177 103.387 17.7671 103.387 16.9599C103.387 16.0442 103.7 15.3635 104.327 14.9177C104.965 14.4599 105.875 14.1105 107.056 13.8695C107.152 13.8454 107.447 13.7852 107.941 13.6888C108.435 13.5924 108.809 13.4538 109.062 13.2731C109.315 13.0804 109.441 12.8454 109.441 12.5683C109.441 12.255 109.327 12.0141 109.098 11.8454C108.869 11.6647 108.508 11.5743 108.014 11.5743C107.399 11.5743 106.947 11.6948 106.658 11.9358C106.381 12.1767 106.218 12.5563 106.17 13.0743H103.785C103.833 12.1105 104.212 11.3273 104.923 10.7249C105.634 10.1225 106.7 9.82129 108.122 9.82129C109.327 9.82129 110.249 10.1044 110.887 10.6707C111.526 11.2249 111.845 12.1406 111.845 13.4177V17.2491C111.845 17.5382 111.869 17.7491 111.917 17.8816C111.978 18.0021 112.08 18.0623 112.224 18.0623C112.309 18.0623 112.387 18.0563 112.459 18.0442V19.3093C111.941 19.4057 111.496 19.4539 111.122 19.4539C110.604 19.4539 110.218 19.3515 109.965 19.1467C109.712 18.9418 109.556 18.6165 109.496 18.1707H109.459C109.134 18.6165 108.706 18.972 108.176 19.237C107.646 19.5021 107.044 19.6346 106.369 19.6346ZM107.273 17.8635C107.923 17.8635 108.447 17.6587 108.845 17.2491C109.243 16.8394 109.441 16.3153 109.441 15.6768V14.7008C109.188 14.8334 108.61 15.0081 107.706 15.2249C107.068 15.3575 106.61 15.5442 106.333 15.7852C106.068 16.0141 105.935 16.3274 105.935 16.725C105.935 17.484 106.381 17.8635 107.273 17.8635ZM116.25 19.3635H113.774V6.44175H116.25V19.3635ZM120.468 19.3635H117.992V6.44175H120.468V19.3635ZM131.102 15.4057H124.289C124.301 16.0924 124.512 16.6587 124.921 17.1045C125.343 17.5382 125.891 17.7551 126.566 17.7551C127.132 17.7551 127.566 17.6346 127.867 17.3936C128.18 17.1527 128.391 16.8695 128.5 16.5442H131.012C130.747 17.5081 130.235 18.2671 129.476 18.8214C128.717 19.3756 127.723 19.6527 126.494 19.6527C125.53 19.6527 124.692 19.4479 123.982 19.0382C123.271 18.6165 122.729 18.0382 122.355 17.3033C121.982 16.5563 121.795 15.7009 121.795 14.737C121.795 13.7972 121.982 12.9599 122.355 12.2249C122.729 11.4779 123.265 10.8936 123.964 10.4719C124.674 10.0382 125.518 9.82129 126.494 9.82129C127.988 9.82129 129.126 10.2611 129.909 11.1406C130.705 12.0201 131.102 13.2671 131.102 14.8816V15.4057ZM128.59 13.7611C128.59 13.1225 128.397 12.6165 128.012 12.243C127.638 11.8695 127.126 11.6828 126.476 11.6828C125.861 11.6828 125.355 11.8695 124.957 12.243C124.56 12.6044 124.337 13.1105 124.289 13.7611H128.59ZM136.409 17.6105C136.626 17.6105 136.885 17.5864 137.186 17.5382V19.3455C136.656 19.4659 136.156 19.5262 135.686 19.5262C134.746 19.5262 134.053 19.2973 133.608 18.8394C133.174 18.3695 132.957 17.5924 132.957 16.5081V12.0261H131.656V10.1285H132.957V7.39959H135.433V10.1285H137.096V12.0261H135.433V16.49C135.433 16.9478 135.505 17.2491 135.65 17.3936C135.806 17.5382 136.059 17.6105 136.409 17.6105ZM142.422 19.6346C140.964 19.6346 139.868 19.3274 139.133 18.7129C138.398 18.0864 138.012 17.2792 137.976 16.2912H140.344C140.392 16.7972 140.585 17.1888 140.922 17.4659C141.259 17.731 141.747 17.8635 142.386 17.8635C143.386 17.8635 143.886 17.5262 143.886 16.8515C143.886 16.478 143.735 16.2129 143.434 16.0563C143.145 15.8996 142.657 15.749 141.97 15.6045L141.573 15.5141C140.537 15.2731 139.717 14.9539 139.115 14.5563C138.512 14.1466 138.211 13.5141 138.211 12.6587C138.211 11.8032 138.549 11.1225 139.223 10.6165C139.91 10.0984 140.856 9.83937 142.061 9.83937C143.374 9.83937 144.368 10.1285 145.043 10.7068C145.717 11.2852 146.085 12.0141 146.145 12.8936H143.777C143.717 12.496 143.561 12.1888 143.308 11.9719C143.067 11.743 142.669 11.6285 142.115 11.6285C141.657 11.6285 141.314 11.7068 141.085 11.8635C140.868 12.0201 140.759 12.237 140.759 12.5141C140.759 12.8153 140.868 13.0261 141.085 13.1466C141.314 13.2671 141.735 13.3936 142.35 13.5261L142.838 13.6346C143.585 13.8153 144.205 14.0081 144.699 14.2129C145.205 14.4057 145.621 14.7008 145.946 15.0984C146.271 15.496 146.434 16.0262 146.434 16.6888C146.434 17.6286 146.085 18.3575 145.386 18.8756C144.699 19.3816 143.711 19.6346 142.422 19.6346ZM151.532 19.3635V6.44175H156.954C158.761 6.44175 160.171 7.00802 161.183 8.14056C162.207 9.26105 162.719 10.8514 162.719 12.9117C162.719 14.984 162.231 16.5804 161.255 17.7009C160.279 18.8093 158.893 19.3635 157.098 19.3635H151.532ZM156.683 17.0503C158.803 17.0503 159.863 15.6707 159.863 12.9117C159.863 10.1406 158.803 8.75502 156.683 8.75502H154.315V17.0503H156.683ZM172.983 15.4057H166.169C166.182 16.0924 166.392 16.6587 166.802 17.1045C167.224 17.5382 167.772 17.7551 168.447 17.7551C169.013 17.7551 169.447 17.6346 169.748 17.3936C170.061 17.1527 170.272 16.8695 170.38 16.5442H172.892C172.627 17.5081 172.115 18.2671 171.356 18.8214C170.597 19.3756 169.603 19.6527 168.374 19.6527C167.41 19.6527 166.573 19.4479 165.862 19.0382C165.151 18.6165 164.609 18.0382 164.236 17.3033C163.862 16.5563 163.676 15.7009 163.676 14.737C163.676 13.7972 163.862 12.9599 164.236 12.2249C164.609 11.4779 165.145 10.8936 165.844 10.4719C166.555 10.0382 167.398 9.82129 168.374 9.82129C169.868 9.82129 171.007 10.2611 171.79 11.1406C172.585 12.0201 172.983 13.2671 172.983 14.8816V15.4057ZM170.471 13.7611C170.471 13.1225 170.278 12.6165 169.892 12.243C169.519 11.8695 169.007 11.6828 168.356 11.6828C167.742 11.6828 167.236 11.8695 166.838 12.243C166.441 12.6044 166.218 13.1105 166.169 13.7611H170.471ZM185.189 9.83937C186.117 9.83937 186.834 10.1225 187.34 10.6888C187.846 11.243 188.099 12.0322 188.099 13.0563V19.3635H185.605V13.8153C185.605 13.1165 185.503 12.6225 185.298 12.3334C185.105 12.0322 184.732 11.8815 184.177 11.8815C183.635 11.8815 183.207 12.0562 182.894 12.4056C182.581 12.755 182.424 13.2551 182.424 13.9057V19.3635H179.948V13.8153C179.948 13.1165 179.852 12.6225 179.659 12.3334C179.467 12.0322 179.093 11.8815 178.539 11.8815C177.997 11.8815 177.569 12.0562 177.256 12.4056C176.942 12.755 176.786 13.2551 176.786 13.9057V19.3635H174.31V10.1285H176.786V11.3936H176.822C177.099 10.9478 177.479 10.5803 177.96 10.2912C178.442 9.98997 179.009 9.83937 179.659 9.83937C180.262 9.83937 180.768 9.98395 181.177 10.2731C181.599 10.5623 181.9 10.9599 182.081 11.4659H182.117C182.551 10.9358 183.003 10.5321 183.473 10.255C183.942 9.97792 184.515 9.83937 185.189 9.83937ZM194.161 19.6527C193.185 19.6527 192.33 19.4479 191.595 19.0382C190.872 18.6286 190.318 18.0563 189.932 17.3213C189.547 16.5744 189.354 15.7189 189.354 14.7551C189.354 13.7912 189.547 12.9358 189.932 12.1888C190.33 11.4418 190.89 10.8635 191.613 10.4538C192.348 10.0321 193.21 9.82129 194.198 9.82129C195.173 9.82129 196.023 10.0261 196.746 10.4358C197.481 10.8454 198.041 11.4237 198.426 12.1707C198.812 12.9057 199.005 13.7551 199.005 14.7189C199.005 15.6828 198.806 16.5382 198.408 17.2852C198.023 18.0322 197.463 18.6165 196.728 19.0382C196.005 19.4479 195.149 19.6527 194.161 19.6527ZM194.179 17.7551C194.926 17.7551 195.493 17.49 195.878 16.9599C196.276 16.4177 196.475 15.6768 196.475 14.737C196.475 13.7972 196.276 13.0623 195.878 12.5322C195.493 12.002 194.926 11.737 194.179 11.737C193.432 11.737 192.86 12.002 192.463 12.5322C192.077 13.0623 191.884 13.7972 191.884 14.737C191.884 15.6768 192.077 16.4177 192.463 16.9599C192.86 17.49 193.432 17.7551 194.179 17.7551Z" fill="black"/>
<path d="M13.5374 26C20.7171 26 26.5374 20.1797 26.5374 13C26.5374 5.8203 20.7171 0 13.5374 0C6.35765 0 0.537354 5.8203 0.537354 13C0.537354 20.1797 6.35765 26 13.5374 26Z" fill="#FF90C1"/>
<path d="M13.5374 26C20.7171 26 26.5374 20.1797 26.5374 13C26.5374 5.8203 20.7171 0 13.5374 0C6.35765 0 0.537354 5.8203 0.537354 13C0.537354 20.1797 6.35765 26 13.5374 26Z" fill="url(#paint0_linear_7734_3134)"/>
<path fill-rule="evenodd" clip-rule="evenodd" d="M16.8109 5.48092C17.0544 5.64581 17.2003 5.92077 17.2003 6.21487V8.86465H17.8891C19.0745 8.86465 20.0355 9.82565 20.0355 11.0111V17.0595C20.0355 18.3842 18.9617 19.458 17.6371 19.458H9.32044C7.99591 19.458 6.92214 18.3844 6.92196 17.0599L6.91919 9.75598C6.92005 9.49322 7.0353 9.31293 7.07723 9.25207C7.12993 9.17559 7.18337 9.12364 7.21078 9.09836C7.26736 9.04617 7.32009 9.01073 7.34319 8.99556C7.39625 8.96068 7.45085 8.93107 7.48949 8.9108C7.57339 8.8668 7.68218 8.81508 7.80216 8.76012C8.0464 8.64824 8.38797 8.49983 8.78861 8.32962C9.59227 7.9882 10.6605 7.5477 11.7249 7.11318C12.7902 6.6783 13.8551 6.248 14.6535 5.92651C15.0527 5.76575 15.3855 5.63213 15.6184 5.53869L15.9844 5.39204C15.9845 5.39202 15.9848 5.39188 16.314 6.21487L15.9844 5.39204C16.2575 5.28284 16.5674 5.31603 16.8109 5.48092ZM15.4276 7.52586C15.3909 7.54063 15.3536 7.55565 15.3157 7.57092C14.5188 7.89182 13.4567 8.32099 12.3949 8.75442C12.3049 8.79116 12.2149 8.82792 12.1252 8.86465H15.4276V7.52586ZM8.69225 10.6374H17.8891C18.0955 10.6374 18.2628 10.8047 18.2628 11.0111V17.0595C18.2628 17.4051 17.9826 17.6853 17.6371 17.6853H9.32044C8.97484 17.6853 8.69469 17.4051 8.69469 17.0595L8.69225 10.6374ZM16.7615 13.3987C17.1077 13.7448 17.1077 14.306 16.7616 14.6522L16.7517 14.6621C16.4056 15.0082 15.8444 15.0082 15.4982 14.6621C15.1521 14.316 15.152 13.7548 15.4982 13.4086L15.508 13.3987C15.8542 13.0526 16.4154 13.0525 16.7615 13.3987Z" fill="url(#paint1_linear_7734_3134)"/>
<defs>
<linearGradient id="paint0_linear_7734_3134" x1="0.537354" y1="0" x2="27.782" y2="24.6228" gradientUnits="userSpaceOnUse">
<stop stop-color="#FF9C27"/>
<stop offset="1" stop-color="#FD48CE"/>
</linearGradient>
<linearGradient id="paint1_linear_7734_3134" x1="13.4774" y1="5.32861" x2="33.2306" y2="15.9514" gradientUnits="userSpaceOnUse">
<stop offset="0.166667" stop-color="white"/>
<stop offset="1" stop-color="white" stop-opacity="0.5"/>
</linearGradient>
</defs>
</svg>
