<svg width="248" height="44" viewBox="0 0 248 44" fill="none" xmlns="http://www.w3.org/2000/svg">
<path d="M66.5515 33.4588C64.6553 33.4588 62.963 33.1529 61.4745 32.5412C59.9861 31.9092 58.8137 31.0018 57.9574 29.8193C57.101 28.6367 56.6627 27.2298 56.6423 25.5987H61.444C61.4847 26.9036 61.9435 27.9027 62.8202 28.5959C63.697 29.2687 64.9204 29.6052 66.4903 29.6052C67.7137 29.6052 68.621 29.3809 69.2123 28.9323C69.824 28.4634 70.1298 27.8415 70.1298 27.0667C70.1298 26.4142 69.9361 25.8943 69.5487 25.5069C69.1817 25.0991 68.672 24.7729 68.0195 24.5282C67.3875 24.2835 66.4496 23.9879 65.2058 23.6413L64.5941 23.4578C63.1057 23.0296 61.8518 22.581 60.8323 22.1121C59.8332 21.6227 59.0074 20.9703 58.355 20.1547C57.7229 19.3391 57.4069 18.3094 57.4069 17.0657C57.4069 14.9452 58.1409 13.3548 59.6089 12.2946C61.0973 11.2139 63.0751 10.6736 65.5422 10.6736C67.2346 10.6736 68.7434 10.9591 70.0687 11.53C71.4144 12.0805 72.4746 12.8961 73.2494 13.9767C74.0446 15.037 74.4728 16.2909 74.5339 17.7385H69.7628C69.5997 16.6987 69.1613 15.9035 68.4477 15.353C67.7545 14.8025 66.786 14.5272 65.5422 14.5272C64.5024 14.5272 63.6868 14.7107 63.0955 15.0777C62.5246 15.4447 62.2392 15.9953 62.2392 16.7293C62.2392 17.3206 62.4023 17.7997 62.7285 18.1667C63.0547 18.5133 63.5033 18.7988 64.0742 19.0231C64.6451 19.2474 65.5015 19.5226 66.6433 19.8488C68.5191 20.379 69.9973 20.8683 71.0779 21.3169C72.179 21.7451 73.0965 22.3873 73.8305 23.2437C74.5849 24.1 74.9621 25.2418 74.9621 26.6691C74.9621 28.7284 74.2281 30.38 72.7601 31.6237C71.292 32.8471 69.2225 33.4588 66.5515 33.4588ZM95.5323 16.8822C97.1023 16.8822 98.3155 17.3613 99.1718 18.3196C100.028 19.2576 100.456 20.5931 100.456 22.3262V33H96.2357V23.6107C96.2357 22.4281 96.0624 21.5921 95.7158 21.1028C95.3896 20.5931 94.7575 20.3382 93.8196 20.3382C92.9021 20.3382 92.1783 20.6338 91.6481 21.2251C91.118 21.8164 90.8529 22.6626 90.8529 23.7636V33H86.6629V23.6107C86.6629 22.4281 86.4998 21.5921 86.1736 21.1028C85.8473 20.5931 85.2153 20.3382 84.2774 20.3382C83.3598 20.3382 82.636 20.6338 82.1059 21.2251C81.5758 21.8164 81.3107 22.6626 81.3107 23.7636V33H77.1207V17.3715H81.3107V19.5124H81.3719C81.8408 18.758 82.4831 18.1361 83.2987 17.6468C84.1143 17.1371 85.0726 16.8822 86.1736 16.8822C87.193 16.8822 88.0494 17.1269 88.7426 17.6162C89.4563 18.1056 89.966 18.7784 90.2718 19.6348H90.333C91.067 18.7376 91.8316 18.0546 92.6268 17.5856C93.422 17.1167 94.3905 16.8822 95.5323 16.8822ZM107.657 33.4588C106.128 33.4588 104.905 33.051 103.987 32.2354C103.07 31.3994 102.611 30.2984 102.611 28.9323C102.611 27.3827 103.141 26.2307 104.201 25.4763C105.282 24.7015 106.821 24.1102 108.819 23.7024C108.983 23.6617 109.482 23.5597 110.318 23.3966C111.154 23.2335 111.786 22.999 112.214 22.6932C112.642 22.3669 112.857 21.9693 112.857 21.5004C112.857 20.9703 112.663 20.5625 112.275 20.277C111.888 19.9712 111.276 19.8183 110.44 19.8183C109.401 19.8183 108.636 20.0222 108.147 20.4299C107.678 20.8377 107.402 21.48 107.321 22.3567H103.284C103.365 20.7256 104.008 19.4003 105.21 18.3808C106.413 17.3613 108.218 16.8516 110.624 16.8516C112.663 16.8516 114.223 17.3308 115.303 18.2891C116.384 19.227 116.924 20.7766 116.924 22.9378V29.4217C116.924 29.911 116.965 30.2678 117.047 30.4921C117.148 30.696 117.322 30.7979 117.566 30.7979C117.709 30.7979 117.842 30.7878 117.964 30.7674V32.9082C117.087 33.0714 116.333 33.1529 115.701 33.1529C114.824 33.1529 114.172 32.9796 113.743 32.633C113.315 32.2864 113.05 31.7359 112.948 30.9815H112.887C112.337 31.7359 111.613 32.3373 110.716 32.7859C109.818 33.2345 108.799 33.4588 107.657 33.4588ZM109.186 30.4615C110.287 30.4615 111.174 30.1149 111.847 29.4217C112.52 28.7284 112.857 27.8415 112.857 26.7608V25.1093C112.428 25.3336 111.45 25.6292 109.92 25.9962C108.84 26.2205 108.065 26.5366 107.596 26.9444C107.147 27.3318 106.923 27.8619 106.923 28.5347C106.923 29.8193 107.678 30.4615 109.186 30.4615ZM128.416 17.1574C128.987 17.1574 129.446 17.188 129.793 17.2492V21.011C129.385 20.9499 129.048 20.9193 128.783 20.9193C127.54 20.9193 126.49 21.3271 125.633 22.1427C124.797 22.9378 124.379 24.0287 124.379 25.4151V33H120.189V17.3715H124.379V20.0629H124.44C124.848 19.1454 125.389 18.4318 126.061 17.9221C126.734 17.4123 127.519 17.1574 128.416 17.1574ZM138.543 30.0333C138.91 30.0333 139.348 29.9926 139.858 29.911V32.9694C138.961 33.1733 138.114 33.2753 137.319 33.2753C135.729 33.2753 134.556 32.8879 133.802 32.1131C133.068 31.3179 132.701 30.0028 132.701 28.1677V20.5829H130.499V17.3715H132.701V12.7533H136.891V17.3715H139.705V20.5829H136.891V28.1371C136.891 28.9119 137.013 29.4217 137.258 29.6663C137.523 29.911 137.951 30.0333 138.543 30.0333ZM156.574 33H151.772L146.236 11.1324H151.007L154.219 26.8526H154.28L158.103 11.1324H162.69L166.513 26.8526H166.575L169.755 11.1324H174.526L168.991 33H164.189L160.427 17.8915H160.366L156.574 33ZM179.1 33.4588C177.57 33.4588 176.347 33.051 175.43 32.2354C174.512 31.3994 174.053 30.2984 174.053 28.9323C174.053 27.3827 174.583 26.2307 175.644 25.4763C176.724 24.7015 178.264 24.1102 180.262 23.7024C180.425 23.6617 180.925 23.5597 181.761 23.3966C182.596 23.2335 183.229 22.999 183.657 22.6932C184.085 22.3669 184.299 21.9693 184.299 21.5004C184.299 20.9703 184.105 20.5625 183.718 20.277C183.33 19.9712 182.719 19.8183 181.883 19.8183C180.843 19.8183 180.078 20.0222 179.589 20.4299C179.12 20.8377 178.845 21.48 178.763 22.3567H174.726C174.808 20.7256 175.45 19.4003 176.653 18.3808C177.856 17.3613 179.66 16.8516 182.066 16.8516C184.105 16.8516 185.665 17.3308 186.746 18.2891C187.826 19.227 188.367 20.7766 188.367 22.9378V29.4217C188.367 29.911 188.407 30.2678 188.489 30.4921C188.591 30.696 188.764 30.7979 189.009 30.7979C189.152 30.7979 189.284 30.7878 189.407 30.7674V32.9082C188.53 33.0714 187.775 33.1529 187.143 33.1529C186.267 33.1529 185.614 32.9796 185.186 32.633C184.758 32.2864 184.493 31.7359 184.391 30.9815H184.33C183.779 31.7359 183.055 32.3373 182.158 32.7859C181.261 33.2345 180.242 33.4588 179.1 33.4588ZM180.629 30.4615C181.73 30.4615 182.617 30.1149 183.29 29.4217C183.963 28.7284 184.299 27.8415 184.299 26.7608V25.1093C183.871 25.3336 182.892 25.6292 181.363 25.9962C180.282 26.2205 179.507 26.5366 179.039 26.9444C178.59 27.3318 178.366 27.8619 178.366 28.5347C178.366 29.8193 179.12 30.4615 180.629 30.4615ZM195.822 33H191.632V11.1324H195.822V33ZM202.96 33H198.77V11.1324H202.96V33ZM220.956 26.3021H209.425C209.446 27.4643 209.803 28.4226 210.496 29.177C211.21 29.911 212.137 30.278 213.279 30.278C214.237 30.278 214.971 30.0741 215.481 29.6663C216.011 29.2585 216.368 28.7794 216.552 28.2289H220.803C220.354 29.86 219.488 31.1446 218.203 32.0825C216.919 33.0204 215.236 33.4893 213.157 33.4893C211.526 33.4893 210.109 33.1427 208.906 32.4495C207.703 31.7359 206.785 30.7572 206.153 29.5134C205.521 28.2493 205.205 26.8016 205.205 25.1705C205.205 23.5801 205.521 22.163 206.153 20.9193C206.785 19.6551 207.692 18.6663 208.875 17.9526C210.078 17.2186 211.505 16.8516 213.157 16.8516C215.685 16.8516 217.612 17.5958 218.937 19.0842C220.283 20.5727 220.956 22.683 220.956 25.4151V26.3021ZM216.704 23.5189C216.704 22.4383 216.378 21.5819 215.726 20.9499C215.094 20.3178 214.227 20.0018 213.126 20.0018C212.086 20.0018 211.23 20.3178 210.557 20.9499C209.884 21.5616 209.507 22.4179 209.425 23.5189H216.704ZM229.936 30.0333C230.303 30.0333 230.742 29.9926 231.252 29.911V32.9694C230.354 33.1733 229.508 33.2753 228.713 33.2753C227.123 33.2753 225.95 32.8879 225.196 32.1131C224.462 31.3179 224.095 30.0028 224.095 28.1677V20.5829H221.893V17.3715H224.095V12.7533H228.285V17.3715H231.099V20.5829H228.285V28.1371C228.285 28.9119 228.407 29.4217 228.652 29.6663C228.917 29.911 229.345 30.0333 229.936 30.0333ZM240.113 33.4588C237.645 33.4588 235.79 32.9388 234.546 31.899C233.302 30.8387 232.65 29.4726 232.589 27.8007H236.595C236.677 28.6571 237.003 29.3197 237.574 29.7887C238.145 30.2372 238.971 30.4615 240.051 30.4615C241.744 30.4615 242.59 29.8906 242.59 28.7488C242.59 28.1167 242.335 27.6682 241.825 27.4031C241.336 27.1381 240.51 26.8832 239.348 26.6385L238.675 26.4856C236.922 26.0778 235.535 25.5375 234.516 24.8646C233.496 24.1714 232.986 23.101 232.986 21.6533C232.986 20.2057 233.557 19.0537 234.699 18.1973C235.861 17.3206 237.462 16.8822 239.501 16.8822C241.723 16.8822 243.405 17.3715 244.547 18.3502C245.689 19.3289 246.311 20.5625 246.413 22.0509H242.406C242.304 21.3781 242.039 20.8581 241.611 20.4911C241.203 20.1037 240.531 19.91 239.593 19.91C238.818 19.91 238.237 20.0425 237.849 20.3076C237.482 20.5727 237.299 20.9397 237.299 21.4086C237.299 21.9184 237.482 22.2752 237.849 22.4791C238.237 22.683 238.95 22.8971 239.99 23.1213L240.816 23.3048C242.08 23.6107 243.13 23.9369 243.966 24.2835C244.822 24.6098 245.526 25.1093 246.076 25.7822C246.627 26.455 246.902 27.3521 246.902 28.4736C246.902 30.0639 246.311 31.2975 245.128 32.1742C243.966 33.0306 242.294 33.4588 240.113 33.4588Z" fill="black"/>
<path d="M22 44C34.1503 44 44 34.1503 44 22C44 9.84974 34.1503 0 22 0C9.84974 0 0 9.84974 0 22C0 34.1503 9.84974 44 22 44Z" fill="#FF90C1"/>
<path d="M22 44C34.1503 44 44 34.1503 44 22C44 9.84974 34.1503 0 22 0C9.84974 0 0 9.84974 0 22C0 34.1503 9.84974 44 22 44Z" fill="url(#paint0_linear_4117_1121)"/>
<path fill-rule="evenodd" clip-rule="evenodd" d="M27.5398 9.27557C27.9519 9.55462 28.1988 10.0199 28.1988 10.5176V15.0019H29.3644C31.3706 15.0019 32.9969 16.6282 32.9969 18.6343V28.8702C32.9969 31.1119 31.1796 32.9291 28.9379 32.9291H14.8636C12.6221 32.9291 10.805 31.1122 10.8047 28.8707L10.8 16.5103C10.8014 16.0656 10.9965 15.7605 11.0674 15.6575C11.1566 15.5281 11.2471 15.4402 11.2935 15.3974C11.3892 15.3091 11.4784 15.2491 11.5175 15.2234C11.6073 15.1644 11.6997 15.1143 11.7651 15.08C11.9071 15.0055 12.0912 14.918 12.2942 14.825C12.7076 14.6357 13.2856 14.3845 13.9636 14.0965C15.3237 13.5187 17.1315 12.7732 18.9328 12.0379C20.7356 11.3019 22.5377 10.5737 23.8888 10.0297C24.5644 9.75759 25.1275 9.53147 25.5217 9.37334L26.1411 9.12517C26.1413 9.12512 26.1418 9.12489 26.6988 10.5176L26.1411 9.12517C26.6033 8.94035 27.1277 8.99652 27.5398 9.27557ZM25.1988 12.7362C25.1367 12.7612 25.0736 12.7867 25.0094 12.8125C23.6608 13.3556 21.8634 14.0818 20.0666 14.8153C19.9143 14.8775 19.762 14.9397 19.6101 15.0019H25.1988V12.7362ZM13.8006 18.0019H29.3644C29.7137 18.0019 29.9969 18.285 29.9969 18.6343V28.8702C29.9969 29.455 29.5228 29.9291 28.9379 29.9291H14.8636C14.2788 29.9291 13.8047 29.455 13.8047 28.8702L13.8006 18.0019ZM27.4563 22.6749C28.0421 23.2606 28.0421 24.2104 27.4563 24.7962L27.4396 24.8129C26.8539 25.3987 25.9041 25.3987 25.3183 24.813C24.7325 24.2272 24.7325 23.2774 25.3183 22.6916L25.335 22.6749C25.9207 22.0891 26.8705 22.0891 27.4563 22.6749Z" fill="url(#paint1_linear_4117_1121)"/>
<defs>
<linearGradient id="paint0_linear_4117_1121" x1="0" y1="0" x2="46.1063" y2="41.6694" gradientUnits="userSpaceOnUse">
<stop stop-color="#FF9C27"/>
<stop offset="1" stop-color="#FD48CE"/>
</linearGradient>
<linearGradient id="paint1_linear_4117_1121" x1="21.8984" y1="9.01782" x2="55.3269" y2="26.9949" gradientUnits="userSpaceOnUse">
<stop offset="0.166667" stop-color="white"/>
<stop offset="1" stop-color="white" stop-opacity="0.5"/>
</linearGradient>
</defs>
</svg>
