<svg width="128" height="127" viewBox="0 0 128 127" fill="none" xmlns="http://www.w3.org/2000/svg">
<path d="M63.8899 124.081C97.4784 124.081 124.707 96.8525 124.707 63.264C124.707 29.6755 97.4784 2.44663 63.8899 2.44663C30.3014 2.44663 3.07261 29.6755 3.07261 63.264C3.07261 96.8525 30.3014 124.081 63.8899 124.081Z" fill="url(#paint0_linear_1264_10696)" stroke="white" stroke-width="4.85088"/>
<g filter="url(#filter0_i_1264_10696)">
<path d="M81.1911 67.048C82.2622 67.048 82.9287 65.8852 82.3874 64.9611L65.1083 35.4593C64.5715 34.5427 63.2454 34.5457 62.7127 35.4647L57.5614 44.3519C57.3095 44.7864 57.3124 45.3232 57.5689 45.755L69.8126 66.3696C70.0624 66.7902 70.5154 67.048 71.0045 67.048H81.1911Z" fill="white"/>
<path d="M86.6035 72.3387C86.3532 71.9203 85.9015 71.6642 85.4139 71.6642H61.104C60.6112 71.6642 60.1555 71.9258 59.9069 72.3512L54.828 81.0456C54.2884 81.9692 54.9538 83.13 56.0235 83.1312L90.6371 83.1694C91.7146 83.1706 92.3815 81.9959 91.8283 81.0713L86.6035 72.3387Z" fill="white"/>
<path d="M55.6578 51.5868C55.1224 50.6746 53.8037 50.6739 53.2674 51.5857L35.9303 81.0584C35.3849 81.9855 36.0573 83.1536 37.133 83.1476L47.5376 83.0894C48.0291 83.0867 48.4825 82.8238 48.7291 82.3986L60.7549 61.6617C61.0056 61.2293 61.0042 60.6955 60.7512 60.2645L55.6578 51.5868Z" fill="white"/>
</g>
<defs>
<filter id="filter0_i_1264_10696" x="35.7363" y="34.7734" width="56.291" height="50.7604" filterUnits="userSpaceOnUse" color-interpolation-filters="sRGB">
<feFlood flood-opacity="0" result="BackgroundImageFix"/>
<feBlend mode="normal" in="SourceGraphic" in2="BackgroundImageFix" result="shape"/>
<feColorMatrix in="SourceAlpha" type="matrix" values="0 0 0 0 0 0 0 0 0 0 0 0 0 0 0 0 0 0 127 0" result="hardAlpha"/>
<feOffset dy="2.36487"/>
<feGaussianBlur stdDeviation="1.18244"/>
<feComposite in2="hardAlpha" operator="arithmetic" k2="-1" k3="1"/>
<feColorMatrix type="matrix" values="0 0 0 0 0.235294 0 0 0 0 0.4 0 0 0 0 1 0 0 0 0.4 0"/>
<feBlend mode="normal" in2="shape" result="effect1_innerShadow_1264_10696"/>
</filter>
<linearGradient id="paint0_linear_1264_10696" x1="5.49805" y1="4.87207" x2="147.979" y2="109.652" gradientUnits="userSpaceOnUse">
<stop offset="0.24238" stop-color="#0055FF"/>
<stop offset="1" stop-color="#21D6EF"/>
</linearGradient>
</defs>
</svg>
