<svg width="41" height="41" viewBox="0 0 41 41" fill="none" xmlns="http://www.w3.org/2000/svg">
<path d="M20.3984 40.9336C31.4441 40.9336 40.3984 31.9793 40.3984 20.9336C40.3984 9.8879 31.4441 0.933594 20.3984 0.933594C9.35274 0.933594 0.398438 9.8879 0.398438 20.9336C0.398438 31.9793 9.35274 40.9336 20.3984 40.9336Z" fill="url(#paint0_linear_1393_3207)"/>
<path fill-rule="evenodd" clip-rule="evenodd" d="M17.6455 9.43359C17.043 9.43359 16.4652 9.67292 16.0392 10.0989C15.6132 10.5249 15.3739 11.1027 15.3739 11.7052V13.1739C15.3739 13.45 15.15 13.6739 14.8739 13.6739H11.0372C10.4348 13.6739 9.85696 13.9132 9.43096 14.3392C9.00495 14.7652 8.76562 15.343 8.76562 15.9455V20.351C8.76562 20.9535 9.00495 21.5312 9.43096 21.9573C9.61672 22.143 9.83135 22.2933 10.0643 22.4037C10.2664 22.4995 10.4177 22.6908 10.4177 22.9144V28.6113C10.4177 29.3598 10.715 30.0777 11.2443 30.607C11.7736 31.1363 12.4915 31.4336 13.24 31.4336H27.5579C28.3064 31.4336 29.0242 31.1363 29.5535 30.607C30.0828 30.0777 30.3801 29.3598 30.3801 28.6113V22.9144C30.3801 22.6908 30.5315 22.4995 30.7335 22.4037C30.9665 22.2933 31.1811 22.143 31.3669 21.9573C31.7929 21.5312 32.0322 20.9535 32.0322 20.351V15.9455C32.0322 15.343 31.7929 14.7652 31.3669 14.3392C30.9409 13.9132 30.3631 13.6739 29.7606 13.6739H25.924C25.6478 13.6739 25.424 13.45 25.424 13.1739V11.7052C25.424 11.1027 25.1846 10.5249 24.7586 10.0989C24.3326 9.67292 23.7548 9.43359 23.1524 9.43359H17.6455ZM22.5835 13.6739C22.8597 13.6739 23.0835 13.45 23.0835 13.1739V12.274C23.0835 11.9979 22.8597 11.774 22.5835 11.774H18.2143C17.9382 11.774 17.7143 11.9979 17.7143 12.274V13.1739C17.7143 13.45 17.9382 13.6739 18.2143 13.6739H22.5835ZM11.6061 16.0143C11.3299 16.0143 11.1061 16.2382 11.1061 16.5143V19.8018C11.1061 20.0671 11.3211 20.2822 11.5864 20.2822L11.5879 20.2822L11.5894 20.2822H29.2084L29.2099 20.2822L29.2114 20.2822C29.4767 20.2822 29.6918 20.0671 29.6918 19.8018V16.5143C29.6918 16.2382 29.4679 16.0143 29.1918 16.0143H11.6061ZM12.7581 28.6113V23.1226C12.7581 22.8464 12.982 22.6226 13.2581 22.6226H27.5397C27.8159 22.6226 28.0397 22.8464 28.0397 23.1226V28.6113C28.0397 28.7391 27.989 28.8617 27.8986 28.952C27.8082 29.0424 27.6857 29.0932 27.5579 29.0932H13.24C13.1122 29.0932 12.9896 29.0424 12.8993 28.952C12.8089 28.8617 12.7581 28.7391 12.7581 28.6113Z" fill="url(#paint1_linear_1393_3207)"/>
<defs>
<linearGradient id="paint0_linear_1393_3207" x1="0.398437" y1="0.933594" x2="42.3133" y2="38.8149" gradientUnits="userSpaceOnUse">
<stop stop-color="#FF9C27"/>
<stop offset="1" stop-color="#FD48CE"/>
</linearGradient>
<linearGradient id="paint1_linear_1393_3207" x1="20.3989" y1="9.43359" x2="20.3989" y2="31.4336" gradientUnits="userSpaceOnUse">
<stop offset="0.166667" stop-color="white"/>
<stop offset="1" stop-color="white" stop-opacity="0.5"/>
</linearGradient>
</defs>
</svg>
