<svg width="226" height="44" viewBox="0 0 226 44" fill="none" xmlns="http://www.w3.org/2000/svg">
<g clip-path="url(#clip0_2132_3)">
<path d="M63.28 33.3993H58L66.64 10.5193H71.696L80.4 33.3993H75.024L73.392 28.3433H64.912L63.28 33.3993ZM69.136 15.0633L66.128 24.5033H72.208L69.2 15.0633H69.136Z" fill="white"/>
<path d="M88.6513 33.9113C86.9873 33.9113 85.5259 33.5486 84.2673 32.8233C83.0299 32.0766 82.0699 31.0526 81.3873 29.7513C80.7046 28.4286 80.3633 26.9139 80.3633 25.2073C80.3633 23.5219 80.7046 22.0179 81.3873 20.6953C82.0699 19.3726 83.0299 18.3486 84.2673 17.6233C85.5046 16.8766 86.9446 16.5033 88.5872 16.5033C90.7846 16.5033 92.5766 17.1113 93.9632 18.3273C95.3499 19.5433 96.1499 21.1326 96.3633 23.0953H91.9152C91.8086 22.1993 91.5099 21.4419 91.0192 20.8233C90.5286 20.2046 89.7393 19.8953 88.6513 19.8953C87.3926 19.8953 86.4432 20.3753 85.8032 21.3353C85.1846 22.2953 84.8752 23.5859 84.8752 25.2073C84.8752 26.8286 85.1846 28.1193 85.8032 29.0793C86.4219 30.0393 87.3713 30.5193 88.6513 30.5193C90.6139 30.5193 91.7019 29.4313 91.9152 27.2553H96.3633C96.2779 28.5353 95.9046 29.6873 95.2433 30.7113C94.6033 31.7139 93.7073 32.5033 92.5553 33.0793C91.4246 33.6339 90.1233 33.9113 88.6513 33.9113Z" fill="white"/>
<path d="M105.995 33.9113C104.331 33.9113 102.87 33.5486 101.611 32.8233C100.374 32.0766 99.4137 31.0526 98.731 29.7513C98.0483 28.4286 97.707 26.9139 97.707 25.2073C97.707 23.5219 98.0483 22.0179 98.731 20.6953C99.4137 19.3726 100.374 18.3486 101.611 17.6233C102.848 16.8766 104.288 16.5033 105.931 16.5033C108.128 16.5033 109.92 17.1113 111.307 18.3273C112.694 19.5433 113.494 21.1326 113.707 23.0953H109.259C109.152 22.1993 108.854 21.4419 108.363 20.8233C107.872 20.2046 107.083 19.8953 105.995 19.8953C104.736 19.8953 103.787 20.3753 103.147 21.3353C102.528 22.2953 102.219 23.5859 102.219 25.2073C102.219 26.8286 102.528 28.1193 103.147 29.0793C103.766 30.0393 104.715 30.5193 105.995 30.5193C107.958 30.5193 109.046 29.4313 109.259 27.2553H113.707C113.622 28.5353 113.248 29.6873 112.587 30.7113C111.947 31.7139 111.051 32.5033 109.899 33.0793C108.768 33.6339 107.467 33.9113 105.995 33.9113Z" fill="white"/>
<path d="M123.563 33.9113C121.835 33.9113 120.32 33.5486 119.019 32.8233C117.739 32.0979 116.757 31.0846 116.075 29.7833C115.392 28.4606 115.051 26.9459 115.051 25.2393C115.051 23.5326 115.392 22.0179 116.075 20.6953C116.779 19.3726 117.771 18.3486 119.051 17.6233C120.352 16.8766 121.877 16.5033 123.627 16.5033C125.355 16.5033 126.859 16.8659 128.139 17.5913C129.44 18.3166 130.432 19.3406 131.115 20.6633C131.797 21.9646 132.139 23.4686 132.139 25.1753C132.139 26.8819 131.787 28.3966 131.083 29.7193C130.4 31.0419 129.408 32.0766 128.107 32.8233C126.827 33.5486 125.312 33.9113 123.563 33.9113ZM123.595 30.5513C124.917 30.5513 125.92 30.0819 126.603 29.1433C127.307 28.1833 127.659 26.8713 127.659 25.2073C127.659 23.5433 127.307 22.2419 126.603 21.3033C125.92 20.3646 124.917 19.8953 123.595 19.8953C122.272 19.8953 121.259 20.3646 120.555 21.3033C119.872 22.2419 119.531 23.5433 119.531 25.2073C119.531 26.8713 119.872 28.1833 120.555 29.1433C121.259 30.0819 122.272 30.5513 123.595 30.5513Z" fill="white"/>
<path d="M145.132 17.0473H149.516V33.3993H145.132V31.1593H145.068C144.577 31.9699 143.884 32.6313 142.988 33.1433C142.113 33.6339 141.014 33.8793 139.692 33.8793C138.092 33.8793 136.801 33.3886 135.82 32.4073C134.838 31.4046 134.348 29.9966 134.348 28.1833V17.0473H138.732V26.8393C138.732 28.0339 138.956 28.9086 139.404 29.4633C139.873 30.0179 140.598 30.2953 141.58 30.2953C142.689 30.2953 143.553 29.9859 144.172 29.3673C144.812 28.7486 145.132 27.8633 145.132 26.7113V17.0473Z" fill="white"/>
<path d="M162.424 16.5353C164.024 16.5353 165.315 17.0366 166.296 18.0393C167.299 19.0206 167.8 20.4179 167.8 22.2313V33.3993H163.384V23.5753C163.384 22.4019 163.149 21.5379 162.68 20.9833C162.232 20.4286 161.528 20.1513 160.568 20.1513C159.437 20.1513 158.552 20.4606 157.912 21.0793C157.293 21.6766 156.984 22.5619 156.984 23.7353V33.3993H152.6V17.0473H156.984V19.2873H157.048C157.539 18.4766 158.221 17.8153 159.096 17.3033C159.992 16.7913 161.101 16.5353 162.424 16.5353Z" fill="white"/>
<path d="M177.928 30.2953C178.312 30.2953 178.771 30.2526 179.304 30.1673V33.3673C178.365 33.5806 177.48 33.6873 176.648 33.6873C174.984 33.6873 173.757 33.2819 172.968 32.4713C172.2 31.6393 171.816 30.2633 171.816 28.3433V20.4073H169.512V17.0473H171.816V12.2153H176.2V17.0473H179.144V20.4073H176.2V28.3113C176.2 29.1219 176.328 29.6553 176.584 29.9113C176.861 30.1673 177.309 30.2953 177.928 30.2953Z" fill="white"/>
<path d="M208.584 33.3993H202.824L196.232 23.7033L193.384 26.9033V33.3993H188.456V10.5193H193.384V20.9833L202.568 10.5193H207.912L199.176 20.3753L208.584 33.3993Z" fill="white"/>
<path d="M213.921 33.3993H209.538V17.0473H213.921V33.3993ZM214.018 14.7433H209.473V10.6153H214.018V14.7433Z" fill="white"/>
<path d="M224.334 30.2953C224.718 30.2953 225.177 30.2526 225.71 30.1673V33.3673C224.772 33.5806 223.886 33.6873 223.054 33.6873C221.39 33.6873 220.164 33.2819 219.374 32.4713C218.606 31.6393 218.222 30.2633 218.222 28.3433V20.4073H215.918V17.0473H218.222V12.2153H222.606V17.0473H225.55V20.4073H222.606V28.3113C222.606 29.1219 222.734 29.6553 222.99 29.9113C223.268 30.1673 223.716 30.2953 224.334 30.2953Z" fill="white"/>
<path d="M22 44C34.1503 44 44 34.1503 44 22C44 9.84974 34.1503 0 22 0C9.84974 0 0 9.84974 0 22C0 34.1503 9.84974 44 22 44Z" fill="#FF90C1"/>
<path d="M22 44C34.1503 44 44 34.1503 44 22C44 9.84974 34.1503 0 22 0C9.84974 0 0 9.84974 0 22C0 34.1503 9.84974 44 22 44Z" fill="url(#paint0_linear_2132_3)"/>
<path fill-rule="evenodd" clip-rule="evenodd" d="M18.9712 9.35004C18.3084 9.35004 17.6729 9.6133 17.2043 10.0819C16.7357 10.5505 16.4724 11.186 16.4724 11.8488V13.4643C16.4724 13.7681 16.2262 14.0143 15.9224 14.0143H11.7021C11.0394 14.0143 10.4038 14.2776 9.93524 14.7462C9.46663 15.2148 9.20337 15.8504 9.20337 16.5131V21.3591C9.20337 22.0218 9.46663 22.6574 9.93524 23.126C10.1396 23.3304 10.3756 23.4956 10.6319 23.6171C10.8542 23.7224 11.0206 23.9329 11.0206 24.1789V30.4455C11.0206 31.2688 11.3477 32.0585 11.9299 32.6407C12.5121 33.2229 13.3017 33.55 14.1251 33.55H29.8748C30.6982 33.55 31.4878 33.2229 32.07 32.6407C32.6522 32.0585 32.9793 31.2688 32.9793 30.4455V24.1789C32.9793 23.9329 33.1458 23.7225 33.3681 23.6171C33.6243 23.4957 33.8604 23.3304 34.0647 23.126C34.5334 22.6574 34.7966 22.0218 34.7966 21.3591V16.5131C34.7966 15.8504 34.5334 15.2148 34.0647 14.7462C33.5961 14.2776 32.9606 14.0143 32.2979 14.0143H28.0775C27.7737 14.0143 27.5275 13.7681 27.5275 13.4643V11.8488C27.5275 11.186 27.2642 10.5505 26.7956 10.0819C26.327 9.6133 25.6914 9.35004 25.0287 9.35004H18.9712ZM26.2364 16.5888H26.2402H26.2441H31.6721C31.9759 16.5888 32.2221 16.835 32.2221 17.1388V20.7601C32.2221 21.0491 31.9878 21.2834 31.6988 21.2834H31.6921H31.6854H12.3146H12.3078H12.3011C12.0121 21.2834 11.7778 21.0491 11.7778 20.7601V17.1388C11.7778 16.835 12.0241 16.5888 12.3278 16.5888H17.7558H17.7596H17.7635H26.2364ZM24.403 14.0143C24.7068 14.0143 24.953 13.7681 24.953 13.4643V12.4745C24.953 12.1707 24.7068 11.9245 24.403 11.9245H19.5969C19.2931 11.9245 19.0469 12.1707 19.0469 12.4745V13.4643C19.0469 13.7681 19.2931 14.0143 19.5969 14.0143H24.403ZM13.5951 30.4455V24.4079C13.5951 24.1041 13.8413 23.8579 14.1451 23.8579H29.8548C30.1586 23.8579 30.4048 24.1041 30.4048 24.4079V30.4455C30.4048 30.5861 30.349 30.7209 30.2496 30.8203C30.1502 30.9197 30.0154 30.9755 29.8748 30.9755H14.1251C13.9845 30.9755 13.8497 30.9197 13.7503 30.8203C13.6509 30.7209 13.5951 30.5861 13.5951 30.4455Z" fill="url(#paint1_linear_2132_3)"/>
</g>
<defs>
<linearGradient id="paint0_linear_2132_3" x1="0" y1="0" x2="46.1063" y2="41.6694" gradientUnits="userSpaceOnUse">
<stop stop-color="#FF9C27"/>
<stop offset="1" stop-color="#FD48CE"/>
</linearGradient>
<linearGradient id="paint1_linear_2132_3" x1="22" y1="9.35004" x2="22" y2="33.55" gradientUnits="userSpaceOnUse">
<stop offset="0.166667" stop-color="white"/>
<stop offset="1" stop-color="white" stop-opacity="0.5"/>
</linearGradient>
<clipPath id="clip0_2132_3">
<rect width="226" height="44" fill="white"/>
</clipPath>
</defs>
</svg>
