<svg width="1600" height="950" viewBox="0 0 1600 950" fill="none" xmlns="http://www.w3.org/2000/svg">
<g clip-path="url(#clip0_874_59799)">
<g opacity="0.5">
<mask id="mask0_874_59799" style="mask-type:alpha" maskUnits="userSpaceOnUse" x="0" y="0" width="1601" height="950">
<path d="M0 0H1600V950H783.333H0V0Z" fill="black"/>
</mask>
<g mask="url(#mask0_874_59799)">
<g opacity="0.5">
<path d="M-120.059 -71.4798C463.469 -178.238 1047 -178.238 1630.53 -71.4798C1832.65 330.494 1863.3 732.473 1722.48 1134.46C1077.63 1252.42 432.783 1252.42 -212.063 1134.46C-352.856 732.462 -322.188 330.484 -120.059 -71.4798Z" stroke="url(#paint0_linear_874_59799)" stroke-width="0.6" stroke-miterlimit="10"/>
<path d="M-269.953 924.699C411.925 1001.98 1098.53 1001.98 1780.4 924.699" stroke="url(#paint1_linear_874_59799)" stroke-width="0.6" stroke-miterlimit="10"/>
<path d="M-279.562 872.295C409.123 939.517 1101.35 939.517 1790.03 872.295" stroke="url(#paint2_linear_874_59799)" stroke-width="0.6" stroke-miterlimit="10"/>
<path d="M-287.232 819.86C406.896 877.065 1103.57 877.065 1797.7 819.86" stroke="url(#paint3_linear_874_59799)" stroke-width="0.6" stroke-miterlimit="10"/>
<path d="M-292.888 767.426C405.319 814.645 1105.25 814.645 1803.46 767.426" stroke="url(#paint4_linear_874_59799)" stroke-width="0.6" stroke-miterlimit="10"/>
<path d="M-296.742 715.005C404.574 752.27 1105.89 752.27 1807.2 715.005" stroke="url(#paint5_linear_874_59799)" stroke-width="0.6" stroke-miterlimit="10"/>
<path d="M-298.572 662.569C403.963 689.935 1106.5 689.935 1809.03 662.569" stroke="url(#paint6_linear_874_59799)" stroke-width="0.6" stroke-miterlimit="10"/>
<path d="M-298.466 610.133C403.999 627.653 1106.46 627.653 1808.93 610.133" stroke="url(#paint7_linear_874_59799)" stroke-width="0.6" stroke-miterlimit="10"/>
<path d="M-296.411 557.697C404.686 565.4 1105.78 565.4 1806.88 557.697" stroke="url(#paint8_linear_874_59799)" stroke-width="0.6" stroke-miterlimit="10"/>
<path d="M-292.419 505.263C406.014 503.211 1104.44 503.211 1802.87 505.263" stroke="url(#paint9_linear_874_59799)" stroke-width="0.6" stroke-miterlimit="10"/>
<path d="M-286.458 452.843C408.004 441.037 1102.47 441.037 1796.93 452.843" stroke="url(#paint10_linear_874_59799)" stroke-width="0.6" stroke-miterlimit="10"/>
<path d="M-278.521 400.407C410.673 378.929 1099.88 378.929 1789.09 400.407" stroke="url(#paint11_linear_874_59799)" stroke-width="0.6" stroke-miterlimit="10"/>
<path d="M-268.747 347.972C413.925 316.841 1096.6 316.841 1779.27 347.972" stroke="url(#paint12_linear_874_59799)" stroke-width="0.6" stroke-miterlimit="10"/>
<path d="M-256.97 295.536C417.388 254.809 1093.07 254.809 1767.43 295.536" stroke="url(#paint13_linear_874_59799)" stroke-width="0.6" stroke-miterlimit="10"/>
<path d="M-243.255 243.103C421.71 192.822 1088.73 192.822 1753.69 243.103" stroke="url(#paint14_linear_874_59799)" stroke-width="0.6" stroke-miterlimit="10"/>
<path d="M-227.579 190.68C426.641 130.874 1083.81 130.874 1738.03 190.68" stroke="url(#paint15_linear_874_59799)" stroke-width="0.6" stroke-miterlimit="10"/>
<path d="M-209.96 138.244C432.158 68.961 1078.31 68.961 1720.43 138.244" stroke="url(#paint16_linear_874_59799)" stroke-width="0.6" stroke-miterlimit="10"/>
<path d="M-190.408 85.8097C438.249 7.09404 1072.22 7.09404 1700.87 85.8097" stroke="url(#paint17_linear_874_59799)" stroke-width="0.6" stroke-miterlimit="10"/>
<path d="M-168.896 33.3753C444.92 -54.7247 1065.55 -54.7247 1679.36 33.3753" stroke="url(#paint18_linear_874_59799)" stroke-width="0.6" stroke-miterlimit="10"/>
<path d="M1575.81 -81.1733C1765.32 327.262 1794.05 736.047 1662.02 1145.18" stroke="url(#paint19_linear_874_59799)" stroke-width="0.6" stroke-miterlimit="10"/>
<path d="M1521.11 -90.2505C1697.98 324.227 1724.81 739.376 1601.6 1155.2" stroke="url(#paint20_linear_874_59799)" stroke-width="0.6" stroke-miterlimit="10"/>
<path d="M1466.47 -98.6978C1630.71 321.431 1655.61 742.494 1541.2 1164.49" stroke="url(#paint21_linear_874_59799)" stroke-width="0.6" stroke-miterlimit="10"/>
<path d="M1411.7 -106.515C1563.3 318.814 1586.3 745.375 1480.69 1173.17" stroke="url(#paint22_linear_874_59799)" stroke-width="0.6" stroke-miterlimit="10"/>
<path d="M1357 -113.701C1495.95 316.409 1517.03 748.016 1420.23 1181.12" stroke="url(#paint23_linear_874_59799)" stroke-width="0.6" stroke-miterlimit="10"/>
<path d="M1302.3 -120.267C1428.63 314.233 1447.78 750.45 1359.77 1188.39" stroke="url(#paint24_linear_874_59799)" stroke-width="0.6" stroke-miterlimit="10"/>
<path d="M1247.58 -126.162C1361.29 312.267 1378.53 752.639 1299.29 1194.95" stroke="url(#paint25_linear_874_59799)" stroke-width="0.6" stroke-miterlimit="10"/>
<path d="M1192.88 -131.531C1293.95 310.477 1309.28 754.619 1238.87 1200.89" stroke="url(#paint26_linear_874_59799)" stroke-width="0.6" stroke-miterlimit="10"/>
<path d="M1138.17 -136.224C1226.6 308.943 1240.02 756.357 1178.41 1206.02" stroke="url(#paint27_linear_874_59799)" stroke-width="0.6" stroke-miterlimit="10"/>
<path d="M1083.47 -140.285C1159.22 307.57 1170.72 757.835 1117.96 1210.51" stroke="url(#paint28_linear_874_59799)" stroke-width="0.6" stroke-miterlimit="10"/>
<path d="M1028.77 -143.731C1091.93 306.421 1101.51 759.102 1057.5 1214.31" stroke="url(#paint29_linear_874_59799)" stroke-width="0.6" stroke-miterlimit="10"/>
<path d="M974.067 -146.547C1024.57 305.482 1032.24 760.137 997.068 1217.42" stroke="url(#paint30_linear_874_59799)" stroke-width="0.6" stroke-miterlimit="10"/>
<path d="M919.352 -148.732C957.274 306.112 963.04 763.881 936.593 1219.85" stroke="url(#paint31_linear_874_59799)" stroke-width="0.6" stroke-miterlimit="10"/>
<path d="M864.653 -150.302C889.926 306.417 893.75 764.432 876.108 1221.65" stroke="url(#paint32_linear_874_59799)" stroke-width="0.6" stroke-miterlimit="10"/>
<path d="M809.938 -151.24C822.564 303.908 824.48 761.856 815.685 1222.6" stroke="url(#paint33_linear_874_59799)" stroke-width="0.6" stroke-miterlimit="10"/>
<path d="M755.231 -151.548L755.231 1222.96" stroke="url(#paint34_linear_874_59799)" stroke-width="0.6" stroke-miterlimit="10"/>
<path d="M700.533 -151.24C687.889 303.908 685.969 761.856 694.772 1222.6" stroke="url(#paint35_linear_874_59799)" stroke-width="0.6" stroke-miterlimit="10"/>
<path d="M645.815 -150.302C620.529 306.416 616.692 764.432 634.321 1221.65" stroke="url(#paint36_linear_874_59799)" stroke-width="0.6" stroke-miterlimit="10"/>
<path d="M591.119 -148.732C553.2 306.112 547.429 763.88 573.865 1219.85" stroke="url(#paint37_linear_874_59799)" stroke-width="0.6" stroke-miterlimit="10"/>
<path d="M536.407 -146.547C485.903 305.482 478.241 760.137 513.419 1217.42" stroke="url(#paint38_linear_874_59799)" stroke-width="0.6" stroke-miterlimit="10"/>
<path d="M481.653 -143.731C418.523 306.421 408.944 759.102 452.918 1214.31" stroke="url(#paint39_linear_874_59799)" stroke-width="0.6" stroke-miterlimit="10"/>
<path d="M427.005 -140.285C351.197 307.57 339.698 757.835 392.51 1210.51" stroke="url(#paint40_linear_874_59799)" stroke-width="0.6" stroke-miterlimit="10"/>
<path d="M372.29 -136.224C283.865 308.943 270.451 756.357 332.048 1206.02" stroke="url(#paint41_linear_874_59799)" stroke-width="0.6" stroke-miterlimit="10"/>
<path d="M317.587 -131.531C216.519 310.477 201.189 754.619 271.598 1200.89" stroke="url(#paint42_linear_874_59799)" stroke-width="0.6" stroke-miterlimit="10"/>
<path d="M262.886 -126.162C149.183 312.267 131.933 752.639 211.137 1194.95" stroke="url(#paint43_linear_874_59799)" stroke-width="0.6" stroke-miterlimit="10"/>
<path d="M208.169 -120.267C81.8402 314.233 62.6836 750.45 150.7 1188.39" stroke="url(#paint44_linear_874_59799)" stroke-width="0.6" stroke-miterlimit="10"/>
<path d="M153.472 -113.701C14.4989 316.409 -6.58204 748.016 90.2286 1181.12" stroke="url(#paint45_linear_874_59799)" stroke-width="0.6" stroke-miterlimit="10"/>
<path d="M98.7573 -106.515C-52.8326 318.814 -75.8423 745.375 29.7281 1173.17" stroke="url(#paint46_linear_874_59799)" stroke-width="0.6" stroke-miterlimit="10"/>
<path d="M44.0966 -98.6978C-120.137 321.431 -145.045 742.494 -30.6273 1164.49" stroke="url(#paint47_linear_874_59799)" stroke-width="0.6" stroke-miterlimit="10"/>
</g>
</g>
</g>
</g>
<defs>
<linearGradient id="paint0_linear_874_59799" x1="755.224" y1="-151.548" x2="755.224" y2="1222.93" gradientUnits="userSpaceOnUse">
<stop stop-color="#FF53BA"/>
<stop offset="1" stop-color="#FFB660" stop-opacity="0.65"/>
</linearGradient>
<linearGradient id="paint1_linear_874_59799" x1="755.225" y1="924.699" x2="755.225" y2="982.662" gradientUnits="userSpaceOnUse">
<stop stop-color="#FF53BA"/>
<stop offset="1" stop-color="#FFB660" stop-opacity="0.65"/>
</linearGradient>
<linearGradient id="paint2_linear_874_59799" x1="755.235" y1="872.295" x2="755.235" y2="922.711" gradientUnits="userSpaceOnUse">
<stop stop-color="#FF53BA"/>
<stop offset="1" stop-color="#FFB660" stop-opacity="0.65"/>
</linearGradient>
<linearGradient id="paint3_linear_874_59799" x1="755.233" y1="819.86" x2="755.233" y2="862.764" gradientUnits="userSpaceOnUse">
<stop stop-color="#FF53BA"/>
<stop offset="1" stop-color="#FFB660" stop-opacity="0.65"/>
</linearGradient>
<linearGradient id="paint4_linear_874_59799" x1="755.284" y1="767.426" x2="755.284" y2="802.84" gradientUnits="userSpaceOnUse">
<stop stop-color="#FF53BA"/>
<stop offset="1" stop-color="#FFB660" stop-opacity="0.65"/>
</linearGradient>
<linearGradient id="paint5_linear_874_59799" x1="755.231" y1="715.005" x2="755.231" y2="742.954" gradientUnits="userSpaceOnUse">
<stop stop-color="#FF53BA"/>
<stop offset="1" stop-color="#FFB660" stop-opacity="0.65"/>
</linearGradient>
<linearGradient id="paint6_linear_874_59799" x1="755.23" y1="662.569" x2="755.23" y2="683.094" gradientUnits="userSpaceOnUse">
<stop stop-color="#FF53BA"/>
<stop offset="1" stop-color="#FFB660" stop-opacity="0.65"/>
</linearGradient>
<linearGradient id="paint7_linear_874_59799" x1="755.231" y1="610.133" x2="755.231" y2="623.273" gradientUnits="userSpaceOnUse">
<stop stop-color="#FF53BA"/>
<stop offset="1" stop-color="#FFB660" stop-opacity="0.65"/>
</linearGradient>
<linearGradient id="paint8_linear_874_59799" x1="755.235" y1="557.697" x2="755.235" y2="563.474" gradientUnits="userSpaceOnUse">
<stop stop-color="#FF53BA"/>
<stop offset="1" stop-color="#FFB660" stop-opacity="0.65"/>
</linearGradient>
<linearGradient id="paint9_linear_874_59799" x1="755.224" y1="503.724" x2="755.224" y2="505.263" gradientUnits="userSpaceOnUse">
<stop stop-color="#FF53BA"/>
<stop offset="1" stop-color="#FFB660" stop-opacity="0.65"/>
</linearGradient>
<linearGradient id="paint10_linear_874_59799" x1="755.235" y1="443.989" x2="755.235" y2="452.843" gradientUnits="userSpaceOnUse">
<stop stop-color="#FF53BA"/>
<stop offset="1" stop-color="#FFB660" stop-opacity="0.65"/>
</linearGradient>
<linearGradient id="paint11_linear_874_59799" x1="755.284" y1="384.298" x2="755.284" y2="400.407" gradientUnits="userSpaceOnUse">
<stop stop-color="#FF53BA"/>
<stop offset="1" stop-color="#FFB660" stop-opacity="0.65"/>
</linearGradient>
<linearGradient id="paint12_linear_874_59799" x1="755.261" y1="324.624" x2="755.261" y2="347.972" gradientUnits="userSpaceOnUse">
<stop stop-color="#FF53BA"/>
<stop offset="1" stop-color="#FFB660" stop-opacity="0.65"/>
</linearGradient>
<linearGradient id="paint13_linear_874_59799" x1="755.231" y1="264.991" x2="755.231" y2="295.536" gradientUnits="userSpaceOnUse">
<stop stop-color="#FF53BA"/>
<stop offset="1" stop-color="#FFB660" stop-opacity="0.65"/>
</linearGradient>
<linearGradient id="paint14_linear_874_59799" x1="755.219" y1="205.392" x2="755.219" y2="243.103" gradientUnits="userSpaceOnUse">
<stop stop-color="#FF53BA"/>
<stop offset="1" stop-color="#FFB660" stop-opacity="0.65"/>
</linearGradient>
<linearGradient id="paint15_linear_874_59799" x1="755.227" y1="145.826" x2="755.227" y2="190.68" gradientUnits="userSpaceOnUse">
<stop stop-color="#FF53BA"/>
<stop offset="1" stop-color="#FFB660" stop-opacity="0.65"/>
</linearGradient>
<linearGradient id="paint16_linear_874_59799" x1="755.233" y1="86.2817" x2="755.233" y2="138.244" gradientUnits="userSpaceOnUse">
<stop stop-color="#FF53BA"/>
<stop offset="1" stop-color="#FFB660" stop-opacity="0.65"/>
</linearGradient>
<linearGradient id="paint17_linear_874_59799" x1="755.233" y1="26.7729" x2="755.233" y2="85.8097" gradientUnits="userSpaceOnUse">
<stop stop-color="#FF53BA"/>
<stop offset="1" stop-color="#FFB660" stop-opacity="0.65"/>
</linearGradient>
<linearGradient id="paint18_linear_874_59799" x1="755.233" y1="-32.6997" x2="755.233" y2="33.3754" gradientUnits="userSpaceOnUse">
<stop stop-color="#FF53BA"/>
<stop offset="1" stop-color="#FFB660" stop-opacity="0.65"/>
</linearGradient>
<linearGradient id="paint19_linear_874_59799" x1="1659.58" y1="-81.1733" x2="1659.58" y2="1145.18" gradientUnits="userSpaceOnUse">
<stop stop-color="#FF53BA"/>
<stop offset="1" stop-color="#FFB660" stop-opacity="0.65"/>
</linearGradient>
<linearGradient id="paint20_linear_874_59799" x1="1599.3" y1="-90.2505" x2="1599.3" y2="1155.2" gradientUnits="userSpaceOnUse">
<stop stop-color="#FF53BA"/>
<stop offset="1" stop-color="#FFB660" stop-opacity="0.65"/>
</linearGradient>
<linearGradient id="paint21_linear_874_59799" x1="1539.07" y1="-98.6978" x2="1539.07" y2="1164.49" gradientUnits="userSpaceOnUse">
<stop stop-color="#FF53BA"/>
<stop offset="1" stop-color="#FFB660" stop-opacity="0.65"/>
</linearGradient>
<linearGradient id="paint22_linear_874_59799" x1="1478.71" y1="-106.515" x2="1478.71" y2="1173.17" gradientUnits="userSpaceOnUse">
<stop stop-color="#FF53BA"/>
<stop offset="1" stop-color="#FFB660" stop-opacity="0.65"/>
</linearGradient>
<linearGradient id="paint23_linear_874_59799" x1="1418.42" y1="-113.701" x2="1418.42" y2="1181.12" gradientUnits="userSpaceOnUse">
<stop stop-color="#FF53BA"/>
<stop offset="1" stop-color="#FFB660" stop-opacity="0.65"/>
</linearGradient>
<linearGradient id="paint24_linear_874_59799" x1="1358.14" y1="-120.267" x2="1358.14" y2="1188.39" gradientUnits="userSpaceOnUse">
<stop stop-color="#FF53BA"/>
<stop offset="1" stop-color="#FFB660" stop-opacity="0.65"/>
</linearGradient>
<linearGradient id="paint25_linear_874_59799" x1="1297.84" y1="-126.162" x2="1297.84" y2="1194.95" gradientUnits="userSpaceOnUse">
<stop stop-color="#FF53BA"/>
<stop offset="1" stop-color="#FFB660" stop-opacity="0.65"/>
</linearGradient>
<linearGradient id="paint26_linear_874_59799" x1="1237.56" y1="-131.531" x2="1237.56" y2="1200.89" gradientUnits="userSpaceOnUse">
<stop stop-color="#FF53BA"/>
<stop offset="1" stop-color="#FFB660" stop-opacity="0.65"/>
</linearGradient>
<linearGradient id="paint27_linear_874_59799" x1="1177.26" y1="-136.224" x2="1177.26" y2="1206.02" gradientUnits="userSpaceOnUse">
<stop stop-color="#FF53BA"/>
<stop offset="1" stop-color="#FFB660" stop-opacity="0.65"/>
</linearGradient>
<linearGradient id="paint28_linear_874_59799" x1="1116.96" y1="-140.285" x2="1116.96" y2="1210.51" gradientUnits="userSpaceOnUse">
<stop stop-color="#FF53BA"/>
<stop offset="1" stop-color="#FFB660" stop-opacity="0.65"/>
</linearGradient>
<linearGradient id="paint29_linear_874_59799" x1="1056.69" y1="-143.731" x2="1056.69" y2="1214.31" gradientUnits="userSpaceOnUse">
<stop stop-color="#FF53BA"/>
<stop offset="1" stop-color="#FFB660" stop-opacity="0.65"/>
</linearGradient>
<linearGradient id="paint30_linear_874_59799" x1="996.396" y1="-146.547" x2="996.396" y2="1217.42" gradientUnits="userSpaceOnUse">
<stop stop-color="#FF53BA"/>
<stop offset="1" stop-color="#FFB660" stop-opacity="0.65"/>
</linearGradient>
<linearGradient id="paint31_linear_874_59799" x1="936.117" y1="-148.732" x2="936.117" y2="1219.85" gradientUnits="userSpaceOnUse">
<stop stop-color="#FF53BA"/>
<stop offset="1" stop-color="#FFB660" stop-opacity="0.65"/>
</linearGradient>
<linearGradient id="paint32_linear_874_59799" x1="875.818" y1="-150.302" x2="875.818" y2="1221.65" gradientUnits="userSpaceOnUse">
<stop stop-color="#FF53BA"/>
<stop offset="1" stop-color="#FFB660" stop-opacity="0.65"/>
</linearGradient>
<linearGradient id="paint33_linear_874_59799" x1="815.52" y1="-151.24" x2="815.52" y2="1222.6" gradientUnits="userSpaceOnUse">
<stop stop-color="#FF53BA"/>
<stop offset="1" stop-color="#FFB660" stop-opacity="0.65"/>
</linearGradient>
<linearGradient id="paint34_linear_874_59799" x1="755.731" y1="-151.548" x2="755.731" y2="1222.96" gradientUnits="userSpaceOnUse">
<stop stop-color="#FF53BA"/>
<stop offset="1" stop-color="#FFB660" stop-opacity="0.65"/>
</linearGradient>
<linearGradient id="paint35_linear_874_59799" x1="694.942" y1="-151.24" x2="694.942" y2="1222.6" gradientUnits="userSpaceOnUse">
<stop stop-color="#FF53BA"/>
<stop offset="1" stop-color="#FFB660" stop-opacity="0.65"/>
</linearGradient>
<linearGradient id="paint36_linear_874_59799" x1="634.638" y1="-150.302" x2="634.638" y2="1221.65" gradientUnits="userSpaceOnUse">
<stop stop-color="#FF53BA"/>
<stop offset="1" stop-color="#FFB660" stop-opacity="0.65"/>
</linearGradient>
<linearGradient id="paint37_linear_874_59799" x1="574.353" y1="-148.732" x2="574.353" y2="1219.85" gradientUnits="userSpaceOnUse">
<stop stop-color="#FF53BA"/>
<stop offset="1" stop-color="#FFB660" stop-opacity="0.65"/>
</linearGradient>
<linearGradient id="paint38_linear_874_59799" x1="514.081" y1="-146.547" x2="514.081" y2="1217.42" gradientUnits="userSpaceOnUse">
<stop stop-color="#FF53BA"/>
<stop offset="1" stop-color="#FFB660" stop-opacity="0.65"/>
</linearGradient>
<linearGradient id="paint39_linear_874_59799" x1="453.745" y1="-143.731" x2="453.745" y2="1214.31" gradientUnits="userSpaceOnUse">
<stop stop-color="#FF53BA"/>
<stop offset="1" stop-color="#FFB660" stop-opacity="0.65"/>
</linearGradient>
<linearGradient id="paint40_linear_874_59799" x1="393.494" y1="-140.285" x2="393.494" y2="1210.51" gradientUnits="userSpaceOnUse">
<stop stop-color="#FF53BA"/>
<stop offset="1" stop-color="#FFB660" stop-opacity="0.65"/>
</linearGradient>
<linearGradient id="paint41_linear_874_59799" x1="333.201" y1="-136.224" x2="333.201" y2="1206.02" gradientUnits="userSpaceOnUse">
<stop stop-color="#FF53BA"/>
<stop offset="1" stop-color="#FFB660" stop-opacity="0.65"/>
</linearGradient>
<linearGradient id="paint42_linear_874_59799" x1="272.91" y1="-131.531" x2="272.91" y2="1200.89" gradientUnits="userSpaceOnUse">
<stop stop-color="#FF53BA"/>
<stop offset="1" stop-color="#FFB660" stop-opacity="0.65"/>
</linearGradient>
<linearGradient id="paint43_linear_874_59799" x1="212.622" y1="-126.162" x2="212.622" y2="1194.95" gradientUnits="userSpaceOnUse">
<stop stop-color="#FF53BA"/>
<stop offset="1" stop-color="#FFB660" stop-opacity="0.65"/>
</linearGradient>
<linearGradient id="paint44_linear_874_59799" x1="152.328" y1="-120.267" x2="152.328" y2="1188.39" gradientUnits="userSpaceOnUse">
<stop stop-color="#FF53BA"/>
<stop offset="1" stop-color="#FFB660" stop-opacity="0.65"/>
</linearGradient>
<linearGradient id="paint45_linear_874_59799" x1="92.0378" y1="-113.701" x2="92.0378" y2="1181.12" gradientUnits="userSpaceOnUse">
<stop stop-color="#FF53BA"/>
<stop offset="1" stop-color="#FFB660" stop-opacity="0.65"/>
</linearGradient>
<linearGradient id="paint46_linear_874_59799" x1="31.7383" y1="-106.515" x2="31.7383" y2="1173.17" gradientUnits="userSpaceOnUse">
<stop stop-color="#FF53BA"/>
<stop offset="1" stop-color="#FFB660" stop-opacity="0.65"/>
</linearGradient>
<linearGradient id="paint47_linear_874_59799" x1="-28.5012" y1="-98.6978" x2="-28.5012" y2="1164.49" gradientUnits="userSpaceOnUse">
<stop stop-color="#FF53BA"/>
<stop offset="1" stop-color="#FFB660" stop-opacity="0.65"/>
</linearGradient>
<clipPath id="clip0_874_59799">
<rect width="1600" height="949.866" fill="white"/>
</clipPath>
</defs>
</svg>
