<svg xmlns="http://www.w3.org/2000/svg" width="32" height="33" viewBox="0 0 32 33" fill="none">
  <circle cx="16" cy="16.8662" r="16" fill="#EFF4F9"/>
  <path d="M12.7996 10.8669C12.7994 11.2913 12.6306 11.6981 12.3304 11.9981C12.0302 12.298 11.6232 12.4663 11.1988 12.4661C10.7745 12.4659 10.3676 12.2971 10.0677 11.9969C9.76776 11.6967 9.5994 11.2897 9.59961 10.8653C9.59982 10.441 9.7686 10.0341 10.0688 9.73418C10.369 9.43427 10.7761 9.2659 11.2004 9.26611C11.6248 9.26633 12.0316 9.4351 12.3315 9.73531C12.6315 10.0355 12.7998 10.4426 12.7996 10.8669ZM12.8476 13.6509H9.64761V23.6669H12.8476V13.6509ZM17.9036 13.6509H14.7196V23.6669H17.8716V18.4109C17.8716 15.4829 21.6876 15.2109 21.6876 18.4109V23.6669H24.8476V17.3229C24.8476 12.3869 19.1996 12.5709 17.8716 14.9949L17.9036 13.6509Z" fill="#374151"/>
</svg>